<svg width="49" height="50" viewBox="0 0 49 50" fill="none" xmlns="http://www.w3.org/2000/svg">
    <g id="Group 23">
        <path id="Union" opacity="0.6" fill-rule="evenodd" clip-rule="evenodd"
            d="M19.8917 10.7642C19.1183 12.1944 19.6509 13.9808 21.0811 14.7542C22.5114 15.5275 24.2978 14.995 25.0711 13.5648L30.0565 4.34493C30.8298 2.91467 30.2973 1.12827 28.867 0.354908C27.4368 -0.418458 25.6504 0.114063 24.877 1.54432L19.8917 10.7642ZM29.6935 16.2327C28.4431 17.272 28.2719 19.1282 29.3112 20.3786C30.3505 21.629 32.2067 21.8002 33.4571 20.7609L43.6457 12.2928C44.8962 11.2535 45.0673 9.39733 44.028 8.14688C42.9888 6.89643 41.1326 6.72526 39.8821 7.76455L29.6935 16.2327ZM10.964 16.81C9.34111 16.7106 8.10607 15.3143 8.20549 13.6914L8.67407 6.04248C8.77349 4.41956 10.1697 3.18453 11.7926 3.28395C13.4156 3.38337 14.6506 4.7796 14.5512 6.40251L14.0826 14.0514C13.9832 15.6744 12.5869 16.9094 10.964 16.81ZM1.29552 26.4266C1.80068 27.9721 3.46306 28.8155 5.00855 28.3103C6.55405 27.8052 7.39741 26.1428 6.89226 24.5973L5.74322 21.0819C5.23807 19.5364 3.57569 18.693 2.03019 19.1982C0.484692 19.7033 -0.35867 21.3657 0.146486 22.9112L1.29552 26.4266ZM17.9423 43.8718C17.1631 45.2989 17.6882 47.0875 19.1152 47.8667L22.3612 49.6393C23.7883 50.4186 25.5768 49.8934 26.3561 48.4664C27.1354 47.0393 26.6103 45.2508 25.1832 44.4715L21.9372 42.6989C20.5102 41.9197 18.7216 42.4448 17.9423 43.8718ZM32.1565 42.5087C30.5427 42.3097 29.3959 40.8401 29.595 39.2264C29.794 37.6126 31.2636 36.4658 32.8773 36.6649L40.4829 37.6031C42.0967 37.8021 43.2435 39.2717 43.0444 40.8854C42.8454 42.4991 41.3758 43.6459 39.7621 43.4469L32.1565 42.5087ZM33.2829 29.4351C33.7817 30.9827 35.4405 31.8329 36.9881 31.3342L46.9642 28.1191C48.5118 27.6203 49.362 25.9614 48.8632 24.4139C48.3645 22.8663 46.7056 22.0161 45.158 22.5148L35.182 25.7299C33.6344 26.2287 32.7841 27.8876 33.2829 29.4351ZM9.42721 41.8316C8.17676 42.8709 6.32056 42.6997 5.28127 41.4493C4.24198 40.1988 4.41315 38.3426 5.6636 37.3033C6.91405 36.264 8.77024 36.4352 9.80954 37.6857C10.8488 38.9361 10.6777 40.7923 9.42721 41.8316Z"
            fill="#00BFB4"></path>
        <path id="Vector 5"
            d="M9.30061 27.6342C10.7486 26.2184 16.8422 20.4074 19.9342 17.4577C20.6299 16.7941 21.9704 17.4577 21.7442 18.3426C21.5179 19.2275 20.8392 21.4398 20.3867 22.9884C19.9342 24.537 21.2917 25.6432 22.6492 25.6432H26.4954C29.3068 25.6432 29.6852 28.9397 28.5316 30.0677C27.1741 31.3951 20.1605 38.4744 19.0292 39.5806C17.898 40.6867 17.2192 41.3504 16.3143 40.6867C15.2904 39.9358 15.6355 39.3593 16.3143 37.1471C16.993 34.9348 17.393 32.5012 14.7305 32.5012H10.8843C8.39562 32.5013 7.49063 29.4041 9.30061 27.6342Z"
            fill="url(#paint0_linear_52_4813)"></path>
    </g>
    <defs>
        <linearGradient id="paint0_linear_52_4813" x1="18.7451" y1="17.1881" x2="18.7451" y2="40.9515"
            gradientUnits="userSpaceOnUse">
            <stop stop-color="#00BFB4" stop-opacity="0"></stop>
            <stop offset="0.265625" stop-color="#00BFB4"></stop>
            <stop offset="0.744792" stop-color="#00BFB4"></stop>
            <stop offset="1" stop-color="#00BFB4" stop-opacity="0"></stop>
        </linearGradient>
    </defs>
</svg>