<svg xmlns="http://www.w3.org/2000/svg" viewBox="0 0 598.33 324.71"><defs><style>.cls-1{fill:#ec1550;}</style></defs><g id="Layer_2" data-name="Layer 2"><g id="Layer_1-2" data-name="Layer 1"><path class="cls-1" d="M81.74,200.2a51.9,51.9,0,0,0,0-71.2,48.2,48.2,0,0,0-15.26-10.86,44.7,44.7,0,0,0-18.6-3.92,44.55,44.55,0,0,0-18.53,3.92A48.2,48.2,0,0,0,14.09,129,51.42,51.42,0,0,0,3.75,145.07a52.76,52.76,0,0,0,0,39.07A51.49,51.49,0,0,0,14.09,200.2a48,48,0,0,0,15.26,10.86A44.56,44.56,0,0,0,47.88,215a44.71,44.71,0,0,0,18.6-3.93A48,48,0,0,0,81.74,200.2Zm-33.86.35a30.47,30.47,0,0,1-13-2.81A34,34,0,0,1,24.25,190,36.47,36.47,0,0,1,17,178.52a38.21,38.21,0,0,1,0-27.76,36.51,36.51,0,0,1,7.21-11.45A34.54,34.54,0,0,1,34.9,131.5a31.23,31.23,0,0,1,26,0,33.94,33.94,0,0,1,10.65,7.77,36.63,36.63,0,0,1,7.22,11.48,38.27,38.27,0,0,1,0,27.73,36.84,36.84,0,0,1-7.22,11.45,34.51,34.51,0,0,1-10.65,7.8A30,30,0,0,1,47.88,200.55Z"/><path class="cls-1" d="M195.83,157.37a29.85,29.85,0,0,0,2.52-12.43,28.56,28.56,0,0,0-3.74-14.56,27.91,27.91,0,0,0-10-10.44,26.78,26.78,0,0,0-14.25-3.89H134.61v97.13h14.48V174h13.19l22.8,39.19h16.7l-23.41-40.56A28,28,0,0,0,188.74,167,29.7,29.7,0,0,0,195.83,157.37Zm-14-5.49a14.78,14.78,0,0,1-13,7.63H149.09v-31h19.75a14.78,14.78,0,0,1,13,7.63,15.23,15.23,0,0,1,2,7.85A14.86,14.86,0,0,1,181.88,151.88Z"/><path class="cls-1" d="M297.92,155.79a21.08,21.08,0,0,0,3.54-6.59,24.12,24.12,0,0,0,1.25-7.64,25.35,25.35,0,0,0-3.57-13.7,23.7,23.7,0,0,0-9.65-8.78A29.73,29.73,0,0,0,275.92,116H241.43v97.16H280a28,28,0,0,0,13.84-3.5,27.08,27.08,0,0,0,10-9.62,26,26,0,0,0,3.74-13.88,44.94,44.94,0,0,0-.72-7.77,33.15,33.15,0,0,0-2.47-7.91,21.87,21.87,0,0,0-4.68-6.69,15.92,15.92,0,0,0-7.39-4A12.44,12.44,0,0,0,297.92,155.79Zm-42.06-27.21h18.53a15.38,15.38,0,0,1,9.79,3.23q4.1,3.23,4.09,9.68a11.79,11.79,0,0,1-4.09,9.51,14.7,14.7,0,0,1-9.79,3.47H255.86Zm36.65,46.74a16.53,16.53,0,0,1,2.14,8.16,18.1,18.1,0,0,1-2.14,8.84,16.13,16.13,0,0,1-5.8,6.15,15.23,15.23,0,0,1-8.09,2.22H255.86V166.75h22.76a14.58,14.58,0,0,1,8.09,2.36A17.38,17.38,0,0,1,292.51,175.32Z"/><path class="cls-1" d="M342.88,113.11a7.68,7.68,0,0,0,0,10.8,7.67,7.67,0,0,0,5.55,2.15,7.39,7.39,0,0,0,5.38-2.15,7.74,7.74,0,0,0,0-10.8,7.9,7.9,0,0,0-10.9,0Z"/><path class="cls-1" d="M361.65,147.77c-.08-1.22-.23-2.44-.38-3.66-.23-2.59-.61-5.1-1-7.62a21,21,0,0,1-11.51,3.2,25,25,0,0,1-3.51-.23l.23,1.38q.57,3.76.91,7.77c.23,2.06.38,4.12.46,6.25.15,2.44.23,5,.23,7.48v.22c0,2.52-.08,5-.23,7.48-.08,2.13-.23,4.19-.46,6.25-.23,2.67-.53,5.18-.91,7.77l-.46,3.05c-.38,1.91-.69,3.82-1.07,5.72-.38,1.53-.68,3-1.06,4.58-.31,1.22-.62,2.36-1,3.58-.38,1.68-.91,3.35-1.44,5-.39,1.22-.77,2.44-1.22,3.74-.54,1.67-1.07,3.28-1.76,4.88-1.29,3.43-2.67,6.71-4.27,10a29.63,29.63,0,0,1-1.9,3.89c0,.08-.08.08-.08.16h0c-1.43,2.86-2.94,5.65-4.6,8.36-.3.46-.61,1-.92,1.53-1.44,2.51-3,4.88-4.72,7.24a72.62,72.62,0,0,1-5.11,6.86,10.48,10.48,0,0,1-1.45,1.91c-1.75,2.29-3.66,4.5-5.64,6.63-1.83,2.06-3.81,4-5.87,6-.92,1-1.83,1.83-2.82,2.74q-2.86,2.75-5.95,5.26c-2.06,1.75-4.12,3.36-6.25,5a4,4,0,0,1-.61.45,26.47,26.47,0,0,1-2.36,1.68,76,76,0,0,1-6.56,4.42c-1.68,1.07-3.35,2.14-5.11,3.05a90.8,90.8,0,0,1-8.46,4.58c-1.37.76-2.82,1.37-4.2,2a145,145,0,0,1-16.92,6.48c-1.68.53-3.43,1.07-5.11,1.45-2.51.68-5,1.37-7.62,1.9-1.6.39-3.2.69-4.81.92s-3.35.61-5.1.84c-2.06.3-4.2.53-6.25.76-2.37.23-4.81.46-7.25.53s-4.95.23-7.47.23h-.23c-2.51,0-5-.07-7.47-.23s-4.8-.3-7.24-.53c-2.14-.15-4.2-.46-6.26-.76-1.67-.23-3.43-.54-5.1-.84l-4.81-.92c-2.59-.53-5.1-1.14-7.62-1.9-1.68-.46-3.43-.92-5.11-1.45a145,145,0,0,1-16.92-6.48c-1.38-.61-2.82-1.3-4.2-2q-4.57-2.3-8.92-4.81c-1.45-.83-2.82-1.67-4.27-2.59-2.59-1.6-5.11-3.35-7.62-5.11a7.83,7.83,0,0,1-1.07-.76A147.38,147.38,0,0,1,98.77,269a3.82,3.82,0,0,1-.83-.76,137.56,137.56,0,0,1-12.66-14,1.81,1.81,0,0,1-.68-.83,133.47,133.47,0,0,1-11.06-16c-1.75-2.9-3.36-5.88-4.88-8.85a60.7,60.7,0,0,1-15.32,3.36c.76,1.52,1.44,3,2.28,4.57a2.58,2.58,0,0,0,.38.76c.84,1.6,1.68,3.13,2.6,4.73,1.83,3.28,3.73,6.56,5.87,9.68,1.06,1.53,2.13,3.13,3.2,4.65s2.21,3.05,3.35,4.5c2.29,3,4.66,5.87,7.17,8.69,1.07,1.22,2.14,2.44,3.2,3.59a14.88,14.88,0,0,0,1.45,1.52c1,1.07,2,2.06,3,3.13,3,3,6,5.79,9.23,8.46,1.14.91,2.21,1.83,3.35,2.74A151.86,151.86,0,0,0,122,304.66c1.6.91,3.28,1.83,5,2.67,1.29.68,2.59,1.29,4,1.9a154.82,154.82,0,0,0,33.77,11.59c1.45.38,2.82.61,4.27.92,2,.38,4,.76,5.95,1,3.51.61,7,1,10.52,1.3,2.06.22,4.12.38,6.18.45,2.74.16,5.49.23,8.23.23h.23c2.75,0,5.49-.07,8.23-.23,2.06-.07,4.12-.23,6.18-.45,3.51-.31,7.09-.69,10.52-1.3,2-.23,4-.61,5.95-1,1.45-.31,2.9-.54,4.27-.92a155.67,155.67,0,0,0,27.9-8.92c2.29-.91,4.5-2,6.71-3a166,166,0,0,0,31.64-20c1.15-.91,2.21-1.83,3.36-2.74,3.2-2.75,6.25-5.57,9.22-8.46,1.07-1.07,2.06-2.06,3.05-3.13.46-.46,1-1,1.45-1.52,1.07-1.15,2.13-2.37,3.2-3.59,2.52-2.82,4.88-5.72,7.17-8.69,1.14-1.45,2.29-3,3.35-4.5s2.14-3.12,3.2-4.65c2.06-3.12,4.05-6.4,5.87-9.68.92-1.6,1.76-3.13,2.6-4.73a7.64,7.64,0,0,0,.38-.76c.82-1.49,1.5-3,2.24-4.48h0c1.91-4,3.66-8,5.19-12.12.53-1.37,1.06-2.75,1.52-4.2A158.12,158.12,0,0,0,358.6,197l.69-3.21c.84-4.27,1.52-8.61,2-13,.15-1.22.3-2.44.38-3.66.15-1.6.31-3.28.38-5,.23-3.2.31-6.48.31-9.76s-.08-6.48-.31-9.6C362,151.13,361.8,149.45,361.65,147.77Z"/><polygon class="cls-1" points="424.56 121.99 410.12 121.99 410.2 143.78 399.16 143.78 399.16 158.22 410.2 158.22 410.12 213.18 424.56 213.18 424.63 158.22 439.21 158.22 439.21 143.78 424.63 143.78 424.56 121.99"/><path class="cls-1" d="M531.22,154.06a31.16,31.16,0,0,0-9.61-8.79,25.67,25.67,0,0,0-13.36-3.43,34.69,34.69,0,0,0-13.91,2.81,36.24,36.24,0,0,0-11.41,7.74,35.77,35.77,0,0,0-10.49,25.47,36.6,36.6,0,0,0,2.85,14.4,37.56,37.56,0,0,0,7.95,11.83,36.79,36.79,0,0,0,11.83,8A36.12,36.12,0,0,0,509.43,215a22.63,22.63,0,0,0,12.29-3.27,24,24,0,0,0,8.25-8.6l.56,10.06H545v-69.4H530.6Zm-4.34,35.8a20.29,20.29,0,0,1-7.11,8.16,19,19,0,0,1-10.68,3,20.49,20.49,0,0,1-10.86-3,23.19,23.19,0,0,1-8-8.12,22,22,0,0,1-3-11.42,22.68,22.68,0,0,1,2.91-11.38,22.43,22.43,0,0,1,7.91-8.19,20.8,20.8,0,0,1,11-3,18.77,18.77,0,0,1,10.65,3,20.65,20.65,0,0,1,7.11,8.15,26.78,26.78,0,0,1,0,22.83Z"/><rect class="cls-1" x="583.89" y="109.09" width="14.44" height="104.09"/><path class="cls-1" d="M66.83,100c.76-1.6,1.52-3.13,2.29-4.65s1.6-3,2.44-4.58A153.24,153.24,0,0,1,89.24,65.64c2.29-2.59,4.58-5.1,7-7.47A153.8,153.8,0,0,1,120.2,38.88l4.35-2.74A92.64,92.64,0,0,1,133.92,31c1.3-.69,2.6-1.37,3.89-1.91a96.42,96.42,0,0,1,10-4.27c1.6-.61,3.28-1.21,4.88-1.75A114.44,114.44,0,0,1,165,19.44c1.52-.38,3.05-.68,4.57-1.07,1.91-.38,3.82-.76,5.72-1.06,1-.16,2-.31,3.05-.46q3.78-.57,7.78-.92c2.06-.22,4.11-.38,6.25-.45,2.44-.16,5-.23,7.47-.23h.23c2.52,0,5,.07,7.47.23,2.14.07,4.19.23,6.25.45,2.67.23,5.19.54,7.78.92,1.07.15,2.06.3,3.05.46,1.91.38,3.81.68,5.72,1.06,1.52.39,3,.69,4.57,1.07,1.22.31,2.37.61,3.59,1,1.67.38,3.35.92,5,1.45,1.22.38,2.44.76,3.73,1.22,1.68.54,3.28,1.07,4.88,1.75,3.43,1.3,6.71,2.67,10,4.27A31.73,31.73,0,0,1,266.05,31c1.37.61,2.67,1.3,4,2.06,2.06,1.07,4.12,2.29,6.1,3.51,1.37.83,2.82,1.75,4.27,2.74,1.22.76,2.44,1.6,3.66,2.44,2.74,1.91,5.49,4,8.16,6.18,1.14.91,2.28,1.83,3.35,2.74.38.38.76.69,1.22,1.07,1.07.91,2.13,1.9,3.13,2.9a143.85,143.85,0,0,1,11.59,12c.83,1,1.67,2,2.43,3,2.14,2.67,4.2,5.34,6.18,8.16a37.8,37.8,0,0,1,2.9,4.27,33.93,33.93,0,0,1,2.74,4.34c.92,1.45,1.75,3,2.59,4.42a42.41,42.41,0,0,1,2.44,4.58,50.79,50.79,0,0,1,2.37,4.65,57.37,57.37,0,0,1,15.4-2.9c-1.6-3.58-3.28-7.09-5.11-10.52-.92-1.68-1.83-3.43-2.82-5.11s-1.91-3.2-2.9-4.8c-2.06-3.36-4.27-6.63-6.55-9.76a153.29,153.29,0,0,0-10.91-13.42C319,52,317.51,50.47,316.14,49c-1.3-1.29-2.59-2.51-3.89-3.81s-2.82-2.67-4.19-3.89-2.9-2.59-4.42-3.81-3-2.44-4.5-3.58-3.05-2.37-4.65-3.51-3.13-2.21-4.73-3.28c-3.43-2.29-6.86-4.34-10.37-6.33-1.52-.91-3.05-1.75-4.65-2.51a140.07,140.07,0,0,0-17.31-7.78c-1.37-.53-2.74-1.07-4.19-1.52a156.38,156.38,0,0,0-18.68-5.26l-3.2-.69c-4.27-.84-8.62-1.53-13-2-1.22-.16-2.44-.31-3.66-.38-1.6-.16-3.28-.31-4.95-.38C206.5.08,203.23,0,200,0s-6.48.08-9.61.31c-1.68.07-3.35.22-5,.38-1.22.07-2.44.22-3.66.38-4.42.45-8.77,1.14-13,2l-3.2.69A152.78,152.78,0,0,0,146.73,9c-1.37.45-2.82,1-4.19,1.52a140.07,140.07,0,0,0-17.31,7.78c-1.52.76-3,1.6-4.65,2.51-1.83,1-3.66,2.06-5.41,3.21-3.36,2-6.56,4.11-9.69,6.4s-6.17,4.65-9.14,7.09-5.8,5-8.62,7.7c-1.3,1.3-2.59,2.52-3.89,3.81l-.61.61A166.76,166.76,0,0,0,68.74,66.94a102.07,102.07,0,0,0-6.56,9.76c-1,1.6-2,3.2-2.9,4.8s-1.9,3.43-2.82,5.11a114.53,114.53,0,0,0-5.11,10.52,57.37,57.37,0,0,1,15.4,2.9Z"/></g></g></svg>