<svg id="svg" version="1.1" xmlns="http://www.w3.org/2000/svg" xmlns:xlink="http://www.w3.org/1999/xlink" width="400" height="63.59300476947536" viewBox="0, 0, 400,63.59300476947536"><g id="svgg"><path id="path0" d="M112.917 13.333 C 112.832 13.600,112.664 13.667,112.074 13.667 C 111.517 13.667,111.285 13.748,111.128 14.000 C 111.013 14.183,110.788 14.333,110.627 14.333 C 110.444 14.333,110.333 14.460,110.333 14.667 C 110.333 14.925,110.222 15.000,109.842 15.000 C 109.346 15.000,108.500 15.616,108.500 15.977 C 108.500 16.082,108.350 16.167,108.167 16.167 C 107.944 16.167,107.833 16.278,107.833 16.500 C 107.833 16.722,107.722 16.833,107.500 16.833 C 107.278 16.833,107.167 16.944,107.167 17.167 C 107.167 17.350,107.062 17.500,106.934 17.500 C 106.682 17.500,106.500 17.850,106.500 18.336 C 106.500 18.505,106.350 18.692,106.167 18.750 C 105.919 18.829,105.833 19.002,105.833 19.428 C 105.833 19.825,105.757 20.000,105.583 20.000 C 105.409 20.000,105.333 20.175,105.333 20.577 C 105.333 20.984,105.235 21.208,105.000 21.333 C 104.716 21.486,104.667 21.682,104.667 22.673 C 104.667 23.722,104.635 23.833,104.333 23.833 C 104.007 23.833,104.000 23.944,104.000 29.432 C 104.000 34.891,104.008 35.033,104.333 35.118 C 104.619 35.193,104.667 35.346,104.667 36.186 C 104.667 36.910,104.727 37.167,104.897 37.167 C 105.160 37.167,105.328 37.667,105.331 38.458 C 105.333 38.808,105.415 39.000,105.565 39.000 C 105.698 39.000,105.843 39.251,105.907 39.592 C 105.968 39.918,106.119 40.223,106.243 40.270 C 106.366 40.318,106.505 40.501,106.551 40.678 C 106.598 40.855,106.746 41.000,106.882 41.000 C 107.017 41.000,107.167 41.150,107.215 41.333 C 107.263 41.517,107.422 41.667,107.568 41.667 C 107.714 41.667,107.833 41.745,107.833 41.841 C 107.833 42.057,108.595 42.833,108.806 42.833 C 108.891 42.833,109.000 42.983,109.048 43.167 C 109.096 43.350,109.246 43.500,109.382 43.500 C 109.517 43.500,109.667 43.650,109.715 43.833 C 109.781 44.086,109.942 44.167,110.382 44.167 C 110.821 44.167,110.982 44.247,111.048 44.500 C 111.115 44.755,111.276 44.833,111.734 44.833 C 112.156 44.833,112.333 44.907,112.333 45.083 C 112.333 45.283,112.583 45.333,113.583 45.333 C 114.722 45.333,114.833 45.363,114.833 45.667 C 114.833 45.987,114.944 46.000,117.653 46.000 C 120.600 46.000,121.000 45.948,121.000 45.566 C 121.000 45.393,121.254 45.333,121.986 45.333 C 122.548 45.333,122.998 45.255,123.033 45.152 C 123.066 45.052,123.466 44.901,123.922 44.816 C 124.377 44.731,124.777 44.583,124.809 44.487 C 124.842 44.391,125.048 44.243,125.267 44.160 C 125.487 44.077,125.667 43.894,125.667 43.754 C 125.667 43.581,125.831 43.500,126.182 43.500 C 126.558 43.500,126.722 43.409,126.785 43.167 C 126.833 42.982,127.012 42.833,127.186 42.833 C 127.389 42.833,127.500 42.715,127.500 42.500 C 127.500 42.278,127.611 42.167,127.833 42.167 C 128.056 42.167,128.167 42.056,128.167 41.833 C 128.167 41.650,128.276 41.500,128.409 41.500 C 128.554 41.500,128.695 41.266,128.761 40.917 C 128.824 40.583,128.969 40.333,129.102 40.333 C 129.261 40.333,129.333 40.124,129.333 39.667 C 129.333 39.111,129.389 39.000,129.667 39.000 C 129.943 39.000,130.000 38.889,130.000 38.353 C 130.000 37.846,130.072 37.687,130.333 37.618 C 130.640 37.538,130.667 37.391,130.667 35.762 L 130.667 33.994 126.875 34.039 L 123.083 34.083 123.033 35.042 C 122.997 35.745,122.919 36.000,122.742 36.000 C 122.577 36.000,122.500 36.185,122.500 36.583 C 122.500 37.056,122.437 37.167,122.167 37.167 C 121.944 37.167,121.833 37.278,121.833 37.500 C 121.833 37.694,121.722 37.833,121.568 37.833 C 121.422 37.833,121.263 37.983,121.215 38.167 C 121.167 38.351,120.988 38.500,120.814 38.500 C 120.641 38.500,120.500 38.603,120.500 38.730 C 120.500 38.892,120.200 38.982,119.478 39.034 C 118.778 39.085,118.391 39.196,118.251 39.387 C 118.004 39.725,117.333 39.759,117.333 39.434 C 117.333 39.127,116.964 39.000,116.070 39.000 C 115.526 39.000,115.333 38.934,115.333 38.750 C 115.333 38.575,115.157 38.500,114.750 38.500 C 114.278 38.500,114.167 38.437,114.167 38.167 C 114.167 37.944,114.056 37.833,113.833 37.833 C 113.611 37.833,113.500 37.722,113.500 37.500 C 113.500 37.317,113.350 37.017,113.167 36.833 C 112.983 36.650,112.833 36.350,112.833 36.167 C 112.833 35.944,112.722 35.833,112.500 35.833 C 112.207 35.833,112.167 35.722,112.167 34.917 C 112.167 34.249,112.104 34.000,111.937 34.000 C 111.759 34.000,111.692 33.549,111.636 31.979 C 111.577 30.330,111.512 29.921,111.282 29.753 C 110.945 29.506,110.905 28.833,111.227 28.833 C 111.509 28.833,111.667 27.786,111.667 25.911 C 111.667 24.842,111.722 24.514,111.917 24.440 C 112.073 24.380,112.167 24.125,112.167 23.761 C 112.167 23.349,112.264 23.126,112.500 23.000 C 112.718 22.883,112.833 22.651,112.833 22.327 C 112.833 21.944,112.908 21.833,113.167 21.833 C 113.389 21.833,113.500 21.722,113.500 21.500 C 113.500 21.312,113.611 21.167,113.755 21.167 C 113.896 21.167,114.054 21.054,114.106 20.917 C 114.159 20.779,114.302 20.667,114.423 20.667 C 114.545 20.667,114.692 20.517,114.750 20.333 C 114.825 20.097,115.002 20.000,115.360 20.000 C 115.724 20.000,115.889 19.907,115.952 19.667 C 116.032 19.358,116.179 19.333,117.917 19.333 C 119.654 19.333,119.801 19.358,119.882 19.667 C 119.948 19.922,120.109 20.000,120.568 20.000 C 121.056 20.000,121.167 20.062,121.167 20.333 C 121.167 20.556,121.278 20.667,121.500 20.667 C 121.722 20.667,121.833 20.778,121.833 21.000 C 121.833 21.222,121.944 21.333,122.167 21.333 C 122.437 21.333,122.500 21.444,122.500 21.917 C 122.500 22.315,122.577 22.500,122.742 22.500 C 122.919 22.500,122.997 22.755,123.033 23.458 L 123.083 24.417 126.833 24.417 L 130.583 24.417 130.635 23.594 C 130.701 22.560,130.564 22.000,130.247 22.000 C 130.058 22.000,130.000 21.780,130.000 21.068 C 130.000 20.276,129.950 20.122,129.667 20.048 C 129.419 19.983,129.333 19.821,129.333 19.415 C 129.333 19.100,129.234 18.831,129.099 18.779 C 128.970 18.730,128.814 18.460,128.753 18.179 C 128.691 17.898,128.547 17.612,128.433 17.543 C 128.318 17.473,128.177 17.285,128.118 17.125 C 128.059 16.965,127.896 16.833,127.755 16.833 C 127.611 16.833,127.500 16.688,127.500 16.500 C 127.500 16.278,127.389 16.167,127.167 16.167 C 126.973 16.167,126.833 16.056,126.833 15.901 C 126.833 15.755,126.683 15.596,126.500 15.548 C 126.317 15.500,126.167 15.357,126.167 15.231 C 126.167 15.104,126.033 15.000,125.870 15.000 C 125.707 15.000,125.446 14.850,125.289 14.667 C 125.132 14.483,124.861 14.333,124.688 14.333 C 124.512 14.333,124.333 14.185,124.285 14.000 C 124.211 13.717,124.058 13.667,123.266 13.667 C 122.444 13.667,122.333 13.627,122.333 13.333 C 122.333 13.008,122.222 13.000,117.678 13.000 C 113.169 13.000,113.019 13.010,112.917 13.333 M215.333 15.250 C 215.333 15.426,215.156 15.500,214.734 15.500 C 214.276 15.500,214.115 15.578,214.048 15.833 C 213.982 16.086,213.821 16.167,213.382 16.167 C 212.942 16.167,212.781 16.247,212.715 16.500 C 212.649 16.750,212.488 16.833,212.064 16.833 C 211.731 16.833,211.370 16.964,211.182 17.152 C 211.007 17.327,210.726 17.496,210.557 17.529 C 210.284 17.581,210.245 17.795,210.203 19.460 L 210.156 21.333 209.620 21.339 C 208.442 21.351,208.333 21.636,208.333 24.716 C 208.333 27.787,208.277 27.659,209.625 27.664 L 210.167 27.667 210.167 33.266 C 210.167 38.724,210.175 38.867,210.500 38.952 C 210.803 39.031,210.833 39.179,210.833 40.603 C 210.833 42.056,210.857 42.167,211.167 42.167 C 211.438 42.167,211.500 42.278,211.500 42.766 C 211.500 43.224,211.578 43.385,211.833 43.452 C 212.018 43.500,212.167 43.679,212.167 43.853 C 212.167 44.056,212.285 44.167,212.500 44.167 C 212.683 44.167,212.833 44.276,212.833 44.409 C 212.833 44.553,213.065 44.695,213.405 44.759 C 213.720 44.818,214.017 44.971,214.067 45.100 C 214.199 45.445,222.833 45.448,222.833 45.103 C 222.833 44.976,222.983 44.833,223.167 44.785 C 223.670 44.653,223.676 41.848,223.174 41.717 C 222.894 41.644,222.840 41.460,222.799 40.441 L 222.750 39.250 222.013 39.197 C 221.477 39.159,221.236 39.216,221.129 39.406 C 220.933 39.757,219.079 39.780,218.946 39.432 C 218.896 39.304,218.626 39.148,218.345 39.086 C 217.880 38.984,217.833 38.914,217.833 38.320 C 217.833 37.889,217.720 37.553,217.500 37.333 C 217.183 37.016,217.167 36.778,217.167 32.333 L 217.167 27.667 219.479 27.667 C 220.751 27.667,222.026 27.620,222.313 27.563 L 222.833 27.458 222.833 24.714 C 222.833 22.109,222.816 21.964,222.500 21.882 C 222.317 21.834,222.167 21.691,222.167 21.564 C 222.167 21.378,221.684 21.333,219.667 21.333 L 217.167 21.333 217.167 18.167 L 217.167 15.000 216.250 15.000 C 215.546 15.000,215.333 15.058,215.333 15.250 M342.368 15.256 C 342.250 15.390,341.931 15.500,341.660 15.500 C 341.389 15.500,341.017 15.650,340.833 15.833 C 340.650 16.017,340.350 16.167,340.167 16.167 C 339.983 16.167,339.683 16.317,339.500 16.500 C 339.310 16.690,338.944 16.833,338.651 16.833 C 338.276 16.833,338.112 16.924,338.048 17.167 C 338.000 17.351,337.821 17.500,337.647 17.500 C 337.358 17.500,337.333 17.651,337.333 19.417 L 337.333 21.333 336.503 21.333 C 335.457 21.333,335.474 21.272,335.536 24.833 L 335.583 27.583 336.458 27.634 L 337.333 27.684 337.333 34.009 C 337.333 40.111,337.345 40.345,337.667 40.667 C 337.873 40.873,338.000 41.222,338.000 41.583 C 338.000 41.944,338.127 42.294,338.333 42.500 C 338.517 42.683,338.667 42.983,338.667 43.167 C 338.667 43.389,338.778 43.500,339.000 43.500 C 339.222 43.500,339.333 43.611,339.333 43.833 C 339.333 44.017,339.443 44.167,339.577 44.167 C 339.712 44.167,339.902 44.317,340.000 44.500 C 340.117 44.718,340.349 44.833,340.673 44.833 C 341.001 44.833,341.167 44.917,341.167 45.083 C 341.167 45.299,341.769 45.333,345.583 45.333 C 349.889 45.333,350.000 45.325,350.000 45.000 C 350.000 44.778,350.111 44.667,350.333 44.667 C 350.595 44.667,350.667 44.556,350.667 44.151 C 350.667 43.776,350.576 43.612,350.333 43.548 C 350.025 43.468,350.000 43.321,350.000 41.564 C 350.000 39.778,349.980 39.667,349.667 39.667 C 349.481 39.667,349.333 39.556,349.333 39.417 C 349.333 39.078,348.357 39.078,348.227 39.417 C 348.063 39.845,345.733 39.770,345.618 39.333 C 345.570 39.150,345.412 39.000,345.266 39.000 C 345.120 39.000,345.000 38.887,345.000 38.750 C 345.000 38.611,344.852 38.500,344.667 38.500 C 344.340 38.500,344.333 38.389,344.333 33.083 L 344.333 27.667 346.849 27.667 C 349.224 27.667,349.369 27.648,349.452 27.333 C 349.500 27.150,349.643 27.000,349.769 27.000 C 350.197 27.000,350.097 22.053,349.667 21.917 C 349.483 21.858,349.333 21.703,349.333 21.572 C 349.333 21.375,348.892 21.333,346.833 21.333 L 344.333 21.333 344.333 18.167 L 344.333 15.000 343.458 15.006 C 342.907 15.010,342.504 15.103,342.368 15.256 M196.882 21.000 C 196.804 21.295,196.654 21.333,195.564 21.333 C 194.581 21.333,194.333 21.384,194.333 21.583 C 194.333 21.737,194.177 21.833,193.930 21.833 C 193.367 21.833,193.000 21.998,193.000 22.249 C 193.000 22.367,192.737 22.512,192.417 22.572 C 192.095 22.633,191.833 22.782,191.833 22.905 C 191.833 23.027,191.665 23.172,191.458 23.227 C 191.048 23.335,190.510 22.815,190.504 22.303 C 190.502 22.149,190.357 21.977,190.182 21.922 C 190.007 21.866,189.822 21.711,189.771 21.577 C 189.591 21.110,185.566 21.232,185.438 21.708 C 185.383 21.915,185.337 25.065,185.336 28.708 C 185.334 34.485,185.301 35.333,185.083 35.333 C 184.867 35.333,184.833 35.963,184.833 40.000 C 184.833 44.037,184.867 44.667,185.083 44.667 C 185.222 44.667,185.333 44.815,185.333 45.000 C 185.333 45.322,185.444 45.333,188.500 45.333 L 191.667 45.333 191.667 39.353 C 191.667 33.512,191.674 33.370,192.000 33.285 C 192.303 33.206,192.333 33.058,192.333 31.682 C 192.333 30.278,192.358 30.167,192.667 30.167 C 192.944 30.167,193.000 30.056,193.000 29.500 C 193.000 28.944,193.056 28.833,193.333 28.833 C 193.519 28.833,193.667 28.722,193.667 28.583 C 193.667 28.446,193.786 28.333,193.932 28.333 C 194.078 28.333,194.235 28.192,194.280 28.020 C 194.340 27.789,194.562 27.684,195.129 27.620 C 195.595 27.568,195.982 27.417,196.114 27.237 C 196.320 26.955,196.351 26.958,196.718 27.303 C 196.948 27.520,197.320 27.667,197.636 27.667 C 198.001 27.667,198.167 27.746,198.167 27.922 C 198.167 28.062,198.279 28.220,198.417 28.273 C 198.565 28.330,198.668 28.583,198.669 28.893 C 198.672 29.668,198.842 30.167,199.103 30.167 C 199.296 30.167,199.333 31.405,199.333 37.750 L 199.333 45.333 202.463 45.333 C 205.026 45.333,205.660 45.286,205.963 45.074 L 206.333 44.814 206.333 36.308 C 206.333 27.942,206.328 27.801,206.000 27.715 C 205.705 27.638,205.667 27.488,205.667 26.397 C 205.667 25.415,205.616 25.167,205.417 25.167 C 205.263 25.167,205.167 25.011,205.167 24.764 C 205.167 24.188,205.001 23.833,204.732 23.833 C 204.604 23.833,204.500 23.683,204.500 23.500 C 204.500 23.278,204.389 23.167,204.167 23.167 C 203.944 23.167,203.833 23.056,203.833 22.833 C 203.833 22.611,203.722 22.500,203.500 22.500 C 203.316 22.500,203.167 22.389,203.167 22.252 C 203.167 22.091,202.931 21.966,202.500 21.897 C 202.098 21.833,201.833 21.700,201.833 21.562 C 201.833 21.389,201.535 21.333,200.603 21.333 C 199.512 21.333,199.362 21.295,199.285 21.000 C 199.209 20.709,199.058 20.667,198.083 20.667 C 197.109 20.667,196.958 20.709,196.882 21.000 M139.734 21.564 C 139.686 21.690,139.351 21.841,138.990 21.899 C 138.567 21.967,138.333 22.092,138.333 22.252 C 138.333 22.406,138.174 22.500,137.915 22.500 C 137.685 22.500,137.368 22.650,137.211 22.833 C 137.054 23.017,136.830 23.167,136.713 23.167 C 136.596 23.167,136.500 23.286,136.500 23.432 C 136.500 23.578,136.350 23.737,136.167 23.785 C 135.982 23.833,135.833 24.012,135.833 24.186 C 135.833 24.389,135.715 24.500,135.500 24.500 C 135.278 24.500,135.167 24.611,135.167 24.833 C 135.167 25.017,135.062 25.167,134.934 25.167 C 134.683 25.167,134.500 25.516,134.500 25.994 C 134.500 26.159,134.350 26.334,134.167 26.382 C 133.920 26.446,133.833 26.609,133.833 27.008 C 133.833 27.322,133.716 27.633,133.551 27.753 C 133.348 27.902,133.248 28.281,133.196 29.105 C 133.157 29.735,133.021 30.398,132.896 30.579 C 132.547 31.079,132.566 36.305,132.917 36.440 C 133.099 36.510,133.167 36.797,133.167 37.504 C 133.167 38.624,133.276 39.000,133.601 39.000 C 133.761 39.000,133.833 39.208,133.833 39.667 C 133.833 40.222,133.889 40.333,134.167 40.333 C 134.438 40.333,134.500 40.444,134.500 40.932 C 134.500 41.391,134.578 41.552,134.833 41.618 C 135.017 41.666,135.167 41.809,135.167 41.936 C 135.167 42.063,135.317 42.167,135.500 42.167 C 135.683 42.167,135.833 42.275,135.833 42.408 C 135.833 42.702,136.548 43.500,136.811 43.500 C 136.915 43.500,137.000 43.620,137.000 43.766 C 137.000 43.912,137.145 44.069,137.322 44.115 C 137.499 44.162,137.682 44.300,137.730 44.424 C 137.777 44.547,138.077 44.697,138.396 44.757 C 138.716 44.817,139.017 44.971,139.067 45.100 C 139.131 45.268,139.471 45.333,140.288 45.333 C 141.239 45.333,141.453 45.386,141.628 45.667 C 141.821 45.975,142.017 46.000,144.253 46.000 C 146.464 46.000,146.694 45.972,146.955 45.667 C 147.178 45.406,147.447 45.333,148.186 45.333 C 148.872 45.333,149.157 45.265,149.227 45.083 C 149.283 44.937,149.533 44.833,149.828 44.833 C 150.111 44.833,150.480 44.687,150.667 44.500 C 150.850 44.317,151.150 44.167,151.333 44.167 C 151.556 44.167,151.667 44.056,151.667 43.833 C 151.667 43.611,151.778 43.500,152.000 43.500 C 152.222 43.500,152.333 43.389,152.333 43.167 C 152.333 42.944,152.444 42.833,152.667 42.833 C 152.889 42.833,153.000 42.722,153.000 42.500 C 153.000 42.315,153.111 42.167,153.250 42.167 C 153.387 42.167,153.500 42.059,153.500 41.928 C 153.500 41.797,153.650 41.642,153.833 41.583 C 154.081 41.505,154.167 41.331,154.167 40.905 C 154.167 40.444,154.231 40.333,154.500 40.333 C 154.776 40.333,154.833 40.222,154.833 39.686 C 154.833 39.179,154.906 39.020,155.167 38.952 C 155.460 38.875,155.500 38.724,155.500 37.691 C 155.500 36.746,155.557 36.485,155.792 36.354 C 156.281 36.080,156.326 31.297,155.846 30.648 C 155.587 30.298,155.500 29.931,155.500 29.187 C 155.500 28.043,155.392 27.667,155.066 27.667 C 154.910 27.667,154.833 27.469,154.833 27.068 C 154.833 26.609,154.755 26.448,154.500 26.382 C 154.250 26.316,154.167 26.154,154.167 25.731 C 154.167 25.278,154.101 25.167,153.833 25.167 C 153.611 25.167,153.500 25.056,153.500 24.833 C 153.500 24.648,153.389 24.500,153.250 24.500 C 153.112 24.500,153.000 24.380,153.000 24.234 C 153.000 24.088,152.850 23.930,152.667 23.882 C 152.483 23.834,152.333 23.684,152.333 23.548 C 152.333 23.413,152.183 23.263,152.000 23.215 C 151.817 23.167,151.667 23.032,151.667 22.915 C 151.667 22.664,151.299 22.500,150.736 22.500 C 150.491 22.500,150.333 22.403,150.333 22.252 C 150.333 22.091,150.098 21.966,149.667 21.897 C 149.265 21.833,149.000 21.700,149.000 21.562 C 149.000 21.221,139.865 21.223,139.734 21.564 M160.000 21.489 C 160.000 21.574,159.850 21.692,159.667 21.750 C 159.339 21.854,159.333 22.002,159.333 31.054 C 159.333 40.073,159.340 40.257,159.667 40.461 C 159.920 40.619,160.000 40.850,160.000 41.418 C 160.000 41.952,160.068 42.167,160.235 42.167 C 160.380 42.167,160.514 42.423,160.583 42.833 C 160.647 43.210,160.790 43.500,160.912 43.500 C 161.031 43.500,161.167 43.650,161.215 43.833 C 161.263 44.017,161.414 44.167,161.550 44.167 C 161.686 44.167,161.839 44.275,161.890 44.407 C 161.941 44.540,162.249 44.698,162.575 44.759 C 162.915 44.823,163.167 44.969,163.167 45.102 C 163.167 45.271,163.409 45.333,164.064 45.333 C 164.821 45.333,164.975 45.385,165.048 45.667 C 165.130 45.980,165.276 46.000,167.500 46.000 C 169.724 46.000,169.870 45.980,169.952 45.667 C 170.024 45.391,170.179 45.333,170.843 45.333 C 171.285 45.333,171.696 45.254,171.756 45.156 C 171.817 45.059,172.046 44.911,172.266 44.827 C 172.486 44.743,172.667 44.561,172.667 44.421 C 172.667 44.278,172.812 44.167,173.000 44.167 C 173.188 44.167,173.333 44.056,173.333 43.911 C 173.333 43.630,173.963 43.331,174.292 43.456 C 174.406 43.500,174.500 43.626,174.500 43.736 C 174.500 43.847,174.650 44.098,174.833 44.295 C 175.017 44.492,175.167 44.808,175.167 44.997 C 175.167 45.333,175.235 45.341,177.708 45.296 L 180.250 45.250 180.293 33.687 L 180.336 22.124 179.909 21.729 C 179.458 21.310,174.000 21.089,174.000 21.489 C 174.000 21.574,173.850 21.692,173.667 21.750 C 173.340 21.854,173.333 22.002,173.333 29.178 C 173.333 36.389,173.328 36.500,173.000 36.500 C 172.722 36.500,172.667 36.611,172.667 37.167 C 172.667 37.722,172.611 37.833,172.333 37.833 C 172.111 37.833,172.000 37.944,172.000 38.167 C 172.000 38.389,171.889 38.500,171.667 38.500 C 171.483 38.500,171.333 38.609,171.333 38.742 C 171.333 38.888,171.099 39.029,170.750 39.094 C 170.416 39.157,170.167 39.303,170.167 39.435 C 170.167 39.607,169.909 39.667,169.167 39.667 C 168.398 39.667,168.167 39.610,168.167 39.421 C 168.167 39.284,167.928 39.115,167.625 39.037 C 167.198 38.927,167.072 38.799,167.029 38.430 C 166.995 38.138,166.854 37.931,166.654 37.878 C 166.343 37.797,166.333 37.549,166.333 29.958 L 166.333 22.122 165.908 21.727 C 165.458 21.310,160.000 21.090,160.000 21.489 M231.833 21.562 C 231.833 21.700,231.569 21.833,231.167 21.897 C 230.735 21.966,230.500 22.091,230.500 22.252 C 230.500 22.418,230.330 22.500,229.984 22.500 C 229.609 22.500,229.445 22.591,229.382 22.833 C 229.333 23.018,229.154 23.167,228.981 23.167 C 228.778 23.167,228.667 23.285,228.667 23.500 C 228.667 23.722,228.556 23.833,228.333 23.833 C 228.111 23.833,228.000 23.944,228.000 24.167 C 228.000 24.389,227.889 24.500,227.667 24.500 C 227.451 24.500,227.333 24.611,227.333 24.814 C 227.333 24.988,227.184 25.167,227.000 25.215 C 226.757 25.278,226.667 25.442,226.667 25.818 C 226.667 26.163,226.585 26.333,226.419 26.333 C 226.258 26.333,226.133 26.569,226.064 27.000 C 226.000 27.402,225.867 27.667,225.729 27.667 C 225.555 27.667,225.500 27.968,225.500 28.917 C 225.500 30.056,225.470 30.167,225.167 30.167 C 224.844 30.167,224.833 30.278,224.833 33.572 C 224.833 36.831,224.848 36.982,225.167 37.083 C 225.444 37.171,225.500 37.336,225.500 38.057 C 225.500 38.537,225.606 39.077,225.736 39.263 C 225.866 39.449,226.025 39.878,226.088 40.217 C 226.156 40.576,226.300 40.833,226.435 40.833 C 226.563 40.833,226.667 40.990,226.667 41.182 C 226.667 41.391,226.801 41.566,227.000 41.618 C 227.183 41.666,227.333 41.840,227.333 42.003 C 227.333 42.518,228.337 43.500,228.864 43.500 C 229.222 43.500,229.333 43.579,229.333 43.833 C 229.333 44.017,229.408 44.167,229.500 44.167 C 229.592 44.167,229.817 44.317,230.000 44.500 C 230.183 44.683,230.513 44.833,230.732 44.833 C 230.952 44.833,231.174 44.946,231.227 45.083 C 231.300 45.273,231.609 45.333,232.510 45.333 C 233.558 45.333,233.708 45.373,233.785 45.667 C 233.867 45.981,234.012 46.000,236.353 46.000 C 238.611 46.000,238.863 45.970,239.167 45.667 C 239.419 45.414,239.722 45.333,240.417 45.333 C 241.120 45.333,241.333 45.275,241.333 45.083 C 241.333 44.911,241.506 44.833,241.885 44.833 C 242.207 44.833,242.586 44.694,242.795 44.500 C 242.992 44.317,243.306 44.167,243.493 44.167 C 243.722 44.167,243.833 44.058,243.833 43.833 C 243.833 43.611,243.944 43.500,244.167 43.500 C 244.389 43.500,244.500 43.389,244.500 43.167 C 244.500 42.944,244.611 42.833,244.833 42.833 C 245.049 42.833,245.167 42.722,245.167 42.519 C 245.167 42.346,245.316 42.167,245.500 42.118 C 245.743 42.055,245.833 41.891,245.833 41.516 C 245.833 41.186,245.917 41.000,246.066 41.000 C 246.372 41.000,246.500 40.632,246.500 39.754 C 246.500 39.269,246.581 39.004,246.750 38.940 C 247.077 38.814,247.071 38.010,246.741 37.537 C 246.380 37.022,240.230 36.949,240.058 37.458 C 239.732 38.422,239.386 38.992,239.125 38.996 C 238.946 38.998,238.833 39.129,238.833 39.333 C 238.833 39.611,238.722 39.667,238.167 39.667 C 237.722 39.667,237.389 39.778,237.167 40.000 C 236.710 40.456,235.728 40.456,235.583 40.000 C 235.505 39.752,235.331 39.667,234.905 39.667 C 234.508 39.667,234.333 39.590,234.333 39.417 C 234.333 39.279,234.232 39.167,234.108 39.167 C 233.789 39.167,233.000 38.401,233.000 38.091 C 233.000 37.949,232.897 37.833,232.772 37.833 C 232.623 37.833,232.512 37.560,232.455 37.052 C 232.401 36.572,232.252 36.186,232.068 36.052 C 231.820 35.870,233.063 35.833,239.385 35.833 L 247.000 35.833 247.000 32.083 C 247.000 29.016,246.958 28.333,246.771 28.333 C 246.617 28.333,246.515 28.051,246.460 27.472 C 246.413 26.982,246.269 26.532,246.127 26.428 C 245.990 26.327,245.824 26.003,245.759 25.706 C 245.693 25.407,245.535 25.167,245.403 25.167 C 245.273 25.167,245.167 25.017,245.167 24.833 C 245.167 24.611,245.056 24.500,244.833 24.500 C 244.611 24.500,244.500 24.389,244.500 24.167 C 244.500 23.944,244.389 23.833,244.167 23.833 C 243.944 23.833,243.833 23.722,243.833 23.500 C 243.833 23.278,243.722 23.167,243.500 23.167 C 243.278 23.167,243.167 23.056,243.167 22.833 C 243.167 22.563,243.056 22.500,242.583 22.500 C 242.196 22.500,242.000 22.422,242.000 22.268 C 242.000 21.999,241.645 21.833,241.070 21.833 C 240.823 21.833,240.667 21.737,240.667 21.583 C 240.667 21.367,240.065 21.333,236.250 21.333 C 232.618 21.333,231.833 21.374,231.833 21.562 M251.207 21.745 L 250.831 22.121 250.874 33.685 L 250.917 45.250 254.375 45.295 L 257.833 45.340 257.833 38.363 C 257.833 31.597,257.843 31.376,258.167 31.083 C 258.351 30.917,258.500 30.570,258.500 30.309 C 258.500 30.017,258.627 29.757,258.833 29.628 C 259.017 29.513,259.167 29.288,259.167 29.127 C 259.167 28.929,259.296 28.833,259.563 28.833 C 259.781 28.833,260.045 28.730,260.149 28.604 C 260.254 28.478,260.638 28.327,261.003 28.269 C 261.432 28.200,261.667 28.075,261.667 27.915 C 261.667 27.709,261.998 27.667,263.583 27.667 L 265.500 27.667 265.500 25.417 C 265.500 24.082,265.565 23.167,265.661 23.167 C 265.906 23.167,266.178 22.558,266.065 22.262 C 266.010 22.118,265.860 22.000,265.732 22.000 C 265.604 22.000,265.500 21.850,265.500 21.667 C 265.500 21.348,265.389 21.333,263.000 21.333 C 260.994 21.333,260.500 21.378,260.500 21.562 C 260.500 21.710,260.226 21.821,259.718 21.878 C 259.281 21.927,258.851 22.084,258.742 22.233 C 258.634 22.380,258.417 22.500,258.258 22.500 C 258.099 22.500,257.930 22.650,257.882 22.833 C 257.834 23.017,257.696 23.167,257.575 23.167 C 257.454 23.167,257.308 23.317,257.250 23.500 C 257.084 24.023,256.714 23.891,256.597 23.266 C 256.539 22.954,256.380 22.656,256.245 22.605 C 256.110 22.553,256.000 22.401,256.000 22.266 C 256.000 22.132,255.857 21.977,255.682 21.922 C 255.507 21.866,255.322 21.711,255.271 21.577 C 255.098 21.128,251.683 21.269,251.207 21.745 M268.772 21.708 C 268.716 21.915,268.670 29.190,268.669 37.875 L 268.667 53.667 271.967 53.667 C 274.311 53.667,275.325 53.609,275.467 53.467 C 275.612 53.321,275.667 52.092,275.667 48.982 C 275.667 44.722,275.669 44.698,276.014 44.789 C 276.205 44.839,276.401 44.982,276.449 45.106 C 276.507 45.257,276.824 45.333,277.397 45.333 C 278.053 45.333,278.328 45.413,278.545 45.667 C 278.803 45.969,279.036 46.000,281.014 46.000 C 283.058 46.000,283.203 45.979,283.285 45.667 C 283.357 45.390,283.512 45.333,284.198 45.333 C 284.710 45.333,285.119 45.238,285.274 45.083 C 285.411 44.946,285.713 44.833,285.944 44.833 C 286.224 44.833,286.394 44.722,286.452 44.500 C 286.500 44.317,286.674 44.167,286.839 44.167 C 287.318 44.167,287.667 43.983,287.667 43.732 C 287.667 43.604,287.782 43.500,287.922 43.500 C 288.062 43.500,288.226 43.369,288.286 43.208 C 288.346 43.048,288.531 42.819,288.697 42.699 C 288.864 42.579,289.000 42.307,289.000 42.093 C 289.000 41.846,289.120 41.674,289.333 41.618 C 289.589 41.552,289.667 41.391,289.667 40.932 C 289.667 40.444,289.729 40.333,290.000 40.333 C 290.278 40.333,290.333 40.222,290.333 39.667 C 290.333 39.210,290.406 39.000,290.564 39.000 C 290.886 39.000,290.995 38.468,290.998 36.887 C 290.999 35.900,291.069 35.455,291.250 35.274 C 291.441 35.083,291.500 34.606,291.500 33.262 C 291.500 31.807,291.456 31.500,291.250 31.500 C 291.048 31.500,291.000 31.234,291.000 30.104 C 291.000 28.409,290.867 27.667,290.563 27.667 C 290.406 27.667,290.333 27.455,290.333 27.000 C 290.333 26.444,290.278 26.333,290.000 26.333 C 289.730 26.333,289.667 26.222,289.667 25.750 C 289.667 25.278,289.603 25.167,289.333 25.167 C 289.089 25.167,289.000 25.056,289.000 24.748 C 289.000 24.518,288.850 24.202,288.667 24.045 C 288.483 23.888,288.333 23.661,288.333 23.541 C 288.333 23.421,288.208 23.275,288.054 23.216 C 287.901 23.157,287.638 22.972,287.471 22.804 C 287.304 22.637,287.017 22.500,286.833 22.500 C 286.649 22.500,286.500 22.389,286.500 22.252 C 286.500 22.091,286.265 21.966,285.833 21.897 C 285.431 21.833,285.167 21.700,285.167 21.562 C 285.167 21.375,284.484 21.333,281.417 21.333 C 278.194 21.333,277.667 21.369,277.667 21.583 C 277.667 21.759,277.489 21.833,277.068 21.833 C 276.609 21.833,276.448 21.911,276.382 22.167 C 276.320 22.401,276.154 22.500,275.823 22.500 C 275.559 22.500,275.257 22.633,275.134 22.803 C 274.694 23.415,274.333 23.382,274.333 22.729 C 274.333 22.285,274.253 22.114,274.015 22.052 C 273.841 22.007,273.660 21.826,273.614 21.651 C 273.474 21.115,268.916 21.168,268.772 21.708 M299.833 21.562 C 299.833 21.711,299.539 21.829,298.992 21.902 C 298.491 21.968,298.113 22.112,298.058 22.257 C 298.006 22.391,297.822 22.500,297.649 22.500 C 297.444 22.500,297.333 22.617,297.333 22.833 C 297.333 23.056,297.222 23.167,297.000 23.167 C 296.778 23.167,296.667 23.278,296.667 23.500 C 296.667 23.722,296.556 23.833,296.333 23.833 C 296.118 23.833,296.000 23.944,296.000 24.147 C 296.000 24.321,295.851 24.500,295.667 24.548 C 295.427 24.611,295.333 24.776,295.333 25.133 C 295.333 25.427,295.228 25.671,295.078 25.729 C 294.866 25.811,294.830 26.133,294.869 27.622 L 294.917 29.417 298.000 29.417 L 301.083 29.417 301.139 28.917 C 301.170 28.642,301.302 28.357,301.431 28.283 C 301.561 28.210,301.667 28.050,301.667 27.928 C 301.667 27.806,301.817 27.666,302.000 27.618 C 302.183 27.570,302.333 27.412,302.333 27.266 C 302.333 27.072,302.495 27.000,302.932 27.000 C 303.391 27.000,303.552 26.922,303.618 26.667 C 303.692 26.386,303.846 26.333,304.592 26.333 C 305.331 26.333,305.495 26.388,305.583 26.667 C 305.661 26.912,305.836 27.000,306.242 27.000 C 306.654 27.000,306.817 27.085,306.882 27.333 C 306.930 27.517,307.088 27.667,307.234 27.667 C 307.445 27.667,307.500 27.856,307.500 28.583 C 307.500 29.278,307.581 29.581,307.833 29.833 L 308.167 30.167 305.250 30.167 C 302.556 30.167,302.308 30.192,302.000 30.500 C 301.716 30.784,301.444 30.833,300.167 30.833 C 298.778 30.833,298.667 30.858,298.667 31.167 C 298.667 31.442,298.556 31.500,298.032 31.500 C 297.683 31.500,297.251 31.610,297.074 31.745 C 296.896 31.879,296.612 31.992,296.443 31.995 C 296.274 31.998,296.096 32.150,296.048 32.333 C 296.000 32.517,295.885 32.667,295.791 32.667 C 295.544 32.667,294.833 33.476,294.833 33.759 C 294.833 33.891,294.683 34.000,294.500 34.000 C 294.229 34.000,294.167 34.111,294.167 34.599 C 294.167 35.058,294.089 35.218,293.833 35.285 C 293.515 35.368,293.500 35.512,293.500 38.417 C 293.500 41.321,293.515 41.465,293.833 41.548 C 294.089 41.615,294.167 41.776,294.167 42.234 C 294.167 42.722,294.229 42.833,294.500 42.833 C 294.722 42.833,294.833 42.944,294.833 43.167 C 294.833 43.350,294.937 43.500,295.064 43.500 C 295.191 43.500,295.334 43.650,295.382 43.833 C 295.430 44.017,295.588 44.167,295.734 44.167 C 295.880 44.167,296.000 44.278,296.000 44.415 C 296.000 44.575,296.235 44.700,296.667 44.769 C 297.069 44.834,297.333 44.967,297.333 45.105 C 297.333 45.275,297.609 45.333,298.415 45.333 C 299.317 45.333,299.532 45.389,299.705 45.667 C 299.893 45.968,300.094 46.000,301.790 46.000 C 303.556 46.000,303.667 45.980,303.667 45.667 C 303.667 45.363,303.778 45.333,304.917 45.333 C 305.872 45.333,306.167 45.279,306.167 45.102 C 306.167 44.969,306.418 44.823,306.759 44.759 C 307.084 44.698,307.392 44.540,307.443 44.407 C 307.494 44.275,307.647 44.167,307.783 44.167 C 307.920 44.167,308.070 44.017,308.118 43.833 C 308.258 43.298,308.620 43.449,308.741 44.093 C 308.957 45.246,309.186 45.333,312.000 45.333 L 314.500 45.333 314.500 36.001 C 314.500 26.850,314.494 26.665,314.167 26.461 C 313.944 26.322,313.833 26.073,313.833 25.710 C 313.833 25.278,313.765 25.167,313.500 25.167 C 313.222 25.167,313.167 25.056,313.167 24.500 C 313.167 23.944,313.111 23.833,312.833 23.833 C 312.611 23.833,312.500 23.722,312.500 23.500 C 312.500 23.317,312.393 23.167,312.261 23.167 C 312.130 23.167,311.975 23.017,311.917 22.833 C 311.858 22.650,311.666 22.500,311.489 22.500 C 311.312 22.500,311.167 22.437,311.167 22.360 C 311.167 22.145,310.374 21.833,309.825 21.833 C 309.499 21.833,309.333 21.749,309.333 21.583 C 309.333 21.367,308.694 21.333,304.583 21.333 C 300.671 21.333,299.833 21.374,299.833 21.562 M319.667 21.577 C 319.667 21.712,319.517 21.902,319.333 22.000 C 318.881 22.242,318.798 44.667,319.250 44.667 C 319.389 44.667,319.500 44.815,319.500 45.000 C 319.500 45.322,319.611 45.333,322.667 45.333 C 325.722 45.333,325.833 45.322,325.833 45.000 C 325.833 44.778,325.944 44.667,326.167 44.667 C 326.495 44.667,326.500 44.556,326.500 37.704 C 326.500 30.947,326.510 30.732,326.833 30.455 C 327.017 30.298,327.167 30.019,327.167 29.835 C 327.167 29.611,327.277 29.500,327.500 29.500 C 327.722 29.500,327.833 29.389,327.833 29.167 C 327.833 28.944,327.944 28.833,328.167 28.833 C 328.352 28.833,328.500 28.722,328.500 28.583 C 328.500 28.411,328.673 28.333,329.061 28.333 C 329.369 28.333,329.812 28.183,330.045 28.000 C 330.402 27.720,330.722 27.667,332.054 27.667 C 334.360 27.667,334.167 27.966,334.167 24.399 L 334.167 21.333 331.411 21.333 C 329.180 21.333,328.639 21.379,328.565 21.571 C 328.515 21.702,328.180 21.858,327.820 21.919 C 327.453 21.981,327.167 22.124,327.167 22.245 C 327.167 22.364,327.017 22.500,326.833 22.548 C 326.650 22.596,326.500 22.755,326.500 22.901 C 326.500 23.047,326.387 23.167,326.250 23.167 C 326.111 23.167,326.000 23.315,326.000 23.500 C 326.000 23.718,325.889 23.833,325.678 23.833 C 325.501 23.833,325.308 23.683,325.250 23.500 C 325.192 23.317,325.037 23.167,324.905 23.167 C 324.774 23.167,324.667 23.023,324.667 22.847 C 324.667 22.377,324.491 22.000,324.272 22.000 C 324.167 22.000,323.987 21.850,323.872 21.667 C 323.598 21.228,319.667 21.144,319.667 21.577 M350.833 21.667 C 350.735 21.850,350.545 22.000,350.411 22.000 C 350.085 22.000,350.085 22.995,350.411 23.426 C 350.546 23.604,350.658 24.001,350.661 24.307 C 350.665 24.722,350.752 24.887,351.000 24.952 C 351.261 25.020,351.333 25.179,351.333 25.686 C 351.333 26.222,351.391 26.333,351.667 26.333 C 351.956 26.333,352.000 26.444,352.000 27.182 C 352.000 27.891,352.055 28.046,352.333 28.118 C 352.594 28.187,352.667 28.346,352.667 28.853 C 352.667 29.389,352.724 29.500,353.000 29.500 C 353.277 29.500,353.333 29.611,353.333 30.155 C 353.333 30.515,353.446 30.922,353.583 31.060 C 353.721 31.197,353.834 31.446,353.836 31.613 C 353.840 32.184,354.039 32.667,354.269 32.667 C 354.423 32.667,354.500 32.867,354.500 33.266 C 354.500 33.724,354.578 33.885,354.833 33.952 C 355.110 34.024,355.167 34.179,355.167 34.868 C 355.167 35.558,355.223 35.713,355.500 35.785 C 355.761 35.853,355.833 36.012,355.833 36.519 C 355.833 37.056,355.891 37.167,356.167 37.167 C 356.443 37.167,356.500 37.278,356.500 37.821 C 356.500 38.182,356.610 38.587,356.745 38.722 C 356.880 38.857,357.040 39.274,357.100 39.650 C 357.166 40.065,357.299 40.333,357.438 40.333 C 357.589 40.333,357.667 40.536,357.667 40.932 C 357.667 41.391,357.745 41.552,358.000 41.618 C 358.260 41.686,358.333 41.846,358.333 42.339 C 358.333 43.135,358.470 43.500,358.768 43.500 C 359.169 43.500,359.075 44.775,358.667 44.882 C 358.415 44.947,358.333 45.109,358.333 45.542 C 358.333 45.903,358.210 46.226,358.000 46.417 C 357.817 46.583,357.667 46.857,357.667 47.026 C 357.667 47.195,357.559 47.333,357.428 47.333 C 357.297 47.333,357.142 47.483,357.083 47.667 C 356.990 47.960,356.831 48.000,355.758 48.000 C 354.679 48.000,354.529 47.962,354.452 47.667 C 354.392 47.438,354.224 47.333,353.917 47.333 C 353.609 47.333,353.442 47.438,353.382 47.667 C 353.333 47.851,353.154 48.000,352.981 48.000 C 352.699 48.000,352.667 48.139,352.667 49.333 C 352.667 50.357,352.613 50.667,352.436 50.667 C 352.150 50.667,352.005 51.179,352.002 52.208 C 352.000 52.883,352.048 53.000,352.325 53.000 C 352.504 53.000,352.723 53.131,352.813 53.292 C 353.089 53.784,360.833 53.833,360.833 53.342 C 360.833 53.072,360.940 53.000,361.339 53.000 C 361.645 53.000,361.884 52.897,361.945 52.737 C 362.000 52.593,362.223 52.407,362.439 52.325 C 362.656 52.242,362.833 52.069,362.833 51.939 C 362.833 51.809,362.939 51.662,363.068 51.612 C 363.196 51.563,363.352 51.292,363.414 51.011 C 363.476 50.730,363.633 50.500,363.763 50.500 C 363.928 50.500,364.000 50.298,364.000 49.833 C 364.000 49.278,364.056 49.167,364.333 49.167 C 364.602 49.167,364.667 49.056,364.667 48.595 C 364.667 48.169,364.752 47.995,365.000 47.917 C 365.256 47.835,365.333 47.664,365.333 47.181 C 365.333 46.763,365.445 46.450,365.667 46.250 C 365.872 46.064,366.000 45.737,366.000 45.397 C 366.000 45.016,366.103 44.790,366.333 44.667 C 366.598 44.525,366.667 44.318,366.667 43.661 C 366.667 43.036,366.728 42.833,366.917 42.833 C 367.097 42.833,367.167 42.648,367.167 42.167 C 367.167 41.611,367.222 41.500,367.500 41.500 C 367.793 41.500,367.833 41.389,367.833 40.583 C 367.833 39.778,367.874 39.667,368.167 39.667 C 368.437 39.667,368.500 39.556,368.500 39.083 C 368.500 38.722,368.627 38.373,368.833 38.167 C 369.052 37.948,369.167 37.611,369.167 37.186 C 369.167 36.679,369.239 36.520,369.500 36.452 C 369.772 36.381,369.833 36.224,369.833 35.605 C 369.833 35.016,369.908 34.805,370.167 34.667 C 370.398 34.543,370.500 34.318,370.500 33.929 C 370.500 33.585,370.596 33.332,370.750 33.273 C 370.925 33.206,371.000 32.932,371.000 32.358 C 371.000 31.679,371.057 31.524,371.333 31.452 C 371.588 31.385,371.667 31.224,371.667 30.771 C 371.667 30.349,371.763 30.127,372.000 30.000 C 372.256 29.863,372.333 29.651,372.333 29.089 C 372.333 28.502,372.400 28.335,372.667 28.250 C 372.917 28.171,373.000 27.998,373.000 27.557 C 373.000 27.222,373.143 26.787,373.333 26.545 C 373.517 26.312,373.667 25.869,373.667 25.561 C 373.667 25.168,373.743 25.000,373.922 25.000 C 374.139 25.000,374.171 24.728,374.131 23.208 L 374.083 21.417 371.138 21.371 C 367.797 21.320,367.333 21.475,367.333 22.644 C 367.333 23.056,367.262 23.167,367.000 23.167 C 366.704 23.167,366.667 23.278,366.667 24.167 C 366.667 25.056,366.630 25.167,366.333 25.167 C 366.040 25.167,366.000 25.278,366.000 26.083 C 366.000 26.889,365.960 27.000,365.667 27.000 C 365.375 27.000,365.333 27.111,365.333 27.897 C 365.333 28.654,365.281 28.808,365.000 28.882 C 364.717 28.956,364.667 29.109,364.667 29.901 C 364.667 30.587,364.605 30.833,364.434 30.833 C 364.135 30.833,364.000 31.199,364.000 32.014 C 364.000 32.483,363.930 32.667,363.750 32.667 C 363.563 32.667,363.500 32.867,363.500 33.467 C 363.500 34.383,363.295 34.667,362.633 34.667 C 362.178 34.667,362.167 34.644,362.167 33.734 C 362.167 32.942,362.117 32.789,361.833 32.715 C 361.556 32.643,361.500 32.488,361.500 31.798 C 361.500 31.109,361.444 30.954,361.167 30.882 C 360.898 30.811,360.833 30.654,360.833 30.076 C 360.833 29.659,360.728 29.252,360.583 29.107 C 360.446 28.970,360.333 28.620,360.333 28.330 C 360.333 27.942,360.245 27.779,360.000 27.715 C 359.718 27.641,359.667 27.488,359.667 26.715 C 359.667 25.942,359.615 25.789,359.333 25.715 C 359.056 25.643,359.000 25.488,359.000 24.798 C 359.000 24.109,358.944 23.954,358.667 23.882 C 358.390 23.809,358.333 23.654,358.333 22.965 C 358.333 22.289,358.274 22.120,358.015 22.052 C 357.841 22.007,357.660 21.826,357.614 21.651 C 357.482 21.147,351.104 21.161,350.833 21.667 M237.411 27.000 C 238.107 27.000,238.333 27.060,238.333 27.242 C 238.333 27.388,238.567 27.529,238.917 27.594 C 239.447 27.694,239.500 27.755,239.500 28.269 C 239.500 28.659,239.577 28.833,239.750 28.833 C 239.931 28.833,240.000 29.019,240.000 29.500 L 240.000 30.167 236.149 30.167 C 232.706 30.167,232.308 30.139,232.399 29.903 C 232.454 29.758,232.500 29.458,232.500 29.236 C 232.500 28.989,232.597 28.833,232.750 28.833 C 232.887 28.833,233.000 28.721,233.000 28.583 C 233.000 28.267,233.527 27.733,233.984 27.589 C 234.176 27.527,234.333 27.370,234.333 27.239 C 234.333 27.063,234.557 27.000,235.182 27.000 C 235.914 27.000,236.044 26.950,236.126 26.637 L 236.221 26.275 236.355 26.637 C 236.471 26.950,236.617 27.000,237.411 27.000 M146.000 27.333 C 146.000 27.556,146.111 27.667,146.333 27.667 C 146.519 27.667,146.667 27.778,146.667 27.917 C 146.667 28.054,146.774 28.167,146.905 28.167 C 147.037 28.167,147.192 28.317,147.250 28.500 C 147.308 28.683,147.463 28.833,147.595 28.833 C 147.738 28.833,147.833 29.000,147.833 29.252 C 147.833 29.482,147.983 29.798,148.167 29.955 C 148.480 30.224,148.500 30.447,148.500 33.704 C 148.500 37.056,148.489 37.167,148.167 37.167 C 147.973 37.167,147.833 37.278,147.833 37.432 C 147.833 37.578,147.683 37.888,147.500 38.121 C 147.317 38.354,147.167 38.647,147.167 38.772 C 147.167 38.898,147.023 39.000,146.847 39.000 C 146.350 39.000,146.000 39.180,146.000 39.434 C 146.000 39.617,145.647 39.667,144.333 39.667 C 142.986 39.667,142.667 39.620,142.667 39.424 C 142.667 39.279,142.433 39.138,142.083 39.072 C 141.762 39.012,141.500 38.877,141.500 38.772 C 141.500 38.666,141.350 38.487,141.167 38.372 C 140.954 38.239,140.833 37.983,140.833 37.665 C 140.833 37.278,140.759 37.167,140.500 37.167 C 140.177 37.167,140.167 37.056,140.167 33.678 C 140.167 30.336,140.181 30.185,140.500 30.083 C 140.748 30.005,140.833 29.831,140.833 29.405 C 140.833 28.944,140.898 28.833,141.167 28.833 C 141.389 28.833,141.500 28.722,141.500 28.500 C 141.500 28.312,141.611 28.167,141.755 28.167 C 141.896 28.167,142.051 28.062,142.100 27.933 C 142.149 27.805,142.335 27.662,142.512 27.615 C 142.689 27.569,142.833 27.412,142.833 27.266 C 142.833 27.041,143.079 27.000,144.417 27.000 C 145.889 27.000,146.000 27.023,146.000 27.333 M281.205 27.333 C 281.402 27.517,281.661 27.667,281.781 27.667 C 281.902 27.667,282.000 27.779,282.000 27.917 C 282.000 28.054,282.120 28.167,282.266 28.167 C 282.412 28.167,282.570 28.317,282.618 28.500 C 282.667 28.684,282.846 28.833,283.019 28.833 C 283.275 28.833,283.333 28.958,283.333 29.500 C 283.333 30.056,283.389 30.167,283.667 30.167 C 283.988 30.167,284.000 30.278,284.000 33.333 C 284.000 36.389,283.988 36.500,283.667 36.500 C 283.389 36.500,283.333 36.611,283.333 37.167 C 283.333 37.722,283.278 37.833,283.000 37.833 C 282.778 37.833,282.667 37.944,282.667 38.167 C 282.667 38.352,282.556 38.500,282.417 38.500 C 282.279 38.500,282.167 38.612,282.167 38.750 C 282.167 38.887,282.057 39.000,281.923 39.000 C 281.788 39.000,281.598 39.150,281.500 39.333 C 281.339 39.634,281.151 39.667,279.583 39.667 C 278.016 39.667,277.828 39.634,277.667 39.333 C 277.569 39.150,277.378 39.000,277.244 39.000 C 277.110 39.000,277.000 38.887,277.000 38.750 C 277.000 38.611,276.852 38.500,276.667 38.500 C 276.389 38.500,276.333 38.389,276.333 37.833 C 276.333 37.278,276.278 37.167,276.000 37.167 C 275.691 37.167,275.667 37.056,275.667 35.651 C 275.667 34.276,275.636 34.127,275.333 34.048 C 275.074 33.981,275.000 33.821,275.000 33.333 C 275.000 32.846,275.074 32.686,275.333 32.618 C 275.636 32.539,275.667 32.391,275.667 31.016 C 275.667 29.611,275.691 29.500,276.000 29.500 C 276.185 29.500,276.333 29.389,276.333 29.250 C 276.333 28.925,277.592 27.667,277.917 27.667 C 278.056 27.667,278.167 27.519,278.167 27.333 C 278.167 27.028,278.278 27.000,279.507 27.000 C 280.617 27.000,280.909 27.057,281.205 27.333 M307.500 36.500 C 307.500 37.722,307.472 37.833,307.167 37.833 C 306.944 37.833,306.833 37.944,306.833 38.167 C 306.833 38.350,306.725 38.500,306.592 38.500 C 306.459 38.500,306.290 38.599,306.217 38.721 C 306.143 38.842,305.952 38.990,305.792 39.049 C 305.631 39.108,305.500 39.271,305.500 39.411 C 305.500 39.607,305.302 39.667,304.651 39.667 C 303.942 39.667,303.788 39.722,303.715 40.000 C 303.608 40.409,302.333 40.502,302.333 40.101 C 302.333 39.864,301.989 39.667,301.577 39.667 C 301.061 39.667,300.500 38.843,300.500 38.084 C 300.500 37.348,301.023 36.500,301.477 36.500 C 301.582 36.500,301.667 36.350,301.667 36.167 C 301.667 35.858,301.778 35.833,303.182 35.833 C 304.558 35.833,304.706 35.803,304.785 35.500 C 304.863 35.202,305.012 35.167,306.186 35.167 L 307.500 35.167 307.500 36.500 " stroke="none" fill="#0c64ec" fill-rule="evenodd"></path><path id="path1" d="M31.500 21.667 C 31.500 21.889,31.389 22.000,31.167 22.000 C 30.981 22.000,30.833 22.111,30.833 22.250 C 30.833 22.387,30.714 22.500,30.568 22.500 C 30.422 22.500,30.263 22.650,30.215 22.833 C 30.167 23.017,30.033 23.167,29.917 23.167 C 29.801 23.167,29.666 23.317,29.618 23.500 C 29.570 23.683,29.412 23.833,29.266 23.833 C 29.111 23.833,29.000 23.973,29.000 24.167 C 29.000 24.389,28.889 24.500,28.667 24.500 C 28.444 24.500,28.333 24.611,28.333 24.833 C 28.333 25.056,28.222 25.167,28.000 25.167 C 27.817 25.167,27.667 25.270,27.667 25.397 C 27.667 25.524,27.517 25.667,27.333 25.715 C 27.150 25.763,27.000 25.922,27.000 26.068 C 27.000 26.214,26.893 26.333,26.761 26.333 C 26.630 26.333,26.475 26.483,26.417 26.667 C 26.358 26.850,26.203 27.000,26.072 27.000 C 25.941 27.000,25.833 27.150,25.833 27.333 C 25.833 27.556,25.722 27.667,25.500 27.667 C 25.173 27.667,25.167 27.778,25.167 33.667 C 25.167 39.556,25.173 39.667,25.500 39.667 C 25.722 39.667,25.833 39.778,25.833 40.000 C 25.833 40.185,25.944 40.333,26.083 40.333 C 26.221 40.333,26.333 40.453,26.333 40.599 C 26.333 40.745,26.483 40.904,26.667 40.952 C 26.850 41.000,27.000 41.150,27.000 41.285 C 27.000 41.420,27.150 41.570,27.333 41.618 C 27.517 41.666,27.667 41.809,27.667 41.936 C 27.667 42.063,27.817 42.167,28.000 42.167 C 28.222 42.167,28.333 42.278,28.333 42.500 C 28.333 42.722,28.444 42.833,28.667 42.833 C 28.882 42.833,29.000 42.944,29.000 43.147 C 29.000 43.326,29.151 43.501,29.350 43.553 C 29.557 43.607,29.652 43.722,29.583 43.833 C 29.515 43.944,29.605 44.059,29.801 44.110 C 29.985 44.158,30.173 44.341,30.219 44.515 C 30.265 44.690,30.422 44.833,30.568 44.833 C 30.714 44.833,30.833 44.946,30.833 45.083 C 30.833 45.222,30.981 45.333,31.167 45.333 C 31.389 45.333,31.500 45.444,31.500 45.667 C 31.500 45.994,31.611 46.000,37.500 46.000 C 43.389 46.000,43.500 45.994,43.500 45.667 C 43.500 45.444,43.611 45.333,43.833 45.333 C 44.017 45.333,44.167 45.226,44.167 45.095 C 44.167 44.963,44.317 44.808,44.500 44.750 C 44.683 44.692,44.833 44.537,44.833 44.405 C 44.833 44.274,44.953 44.167,45.099 44.167 C 45.245 44.167,45.404 44.017,45.452 43.833 C 45.500 43.650,45.638 43.500,45.758 43.500 C 45.879 43.500,46.025 43.350,46.083 43.167 C 46.142 42.983,46.297 42.833,46.428 42.833 C 46.559 42.833,46.667 42.683,46.667 42.500 C 46.667 42.278,46.778 42.167,47.000 42.167 C 47.183 42.167,47.333 42.095,47.333 42.008 C 47.333 41.799,48.059 41.077,48.400 40.946 C 48.547 40.890,48.667 40.729,48.667 40.589 C 48.667 40.448,48.782 40.333,48.922 40.333 C 49.062 40.333,49.223 40.213,49.279 40.067 C 49.410 39.726,50.133 39.000,50.341 39.000 C 50.428 39.000,50.500 38.893,50.500 38.761 C 50.500 38.630,50.650 38.475,50.833 38.417 C 51.017 38.358,51.167 38.212,51.167 38.092 C 51.167 37.971,51.317 37.833,51.500 37.785 C 51.683 37.737,51.833 37.578,51.833 37.432 C 51.833 37.286,51.948 37.167,52.089 37.167 C 52.229 37.167,52.390 37.047,52.446 36.900 C 52.577 36.559,53.299 35.833,53.508 35.833 C 53.595 35.833,53.667 35.683,53.667 35.500 C 53.667 35.278,53.778 35.167,54.000 35.167 C 54.185 35.167,54.333 35.056,54.333 34.917 C 54.333 34.779,54.441 34.667,54.572 34.667 C 54.703 34.667,54.856 34.525,54.911 34.351 C 54.966 34.178,55.159 33.997,55.339 33.950 C 55.519 33.903,55.667 33.750,55.667 33.610 C 55.667 33.470,55.822 33.306,56.012 33.246 C 56.220 33.180,56.321 33.043,56.267 32.902 C 56.209 32.748,56.291 32.667,56.505 32.667 C 56.722 32.667,56.833 32.554,56.833 32.333 C 56.833 32.111,56.944 32.000,57.167 32.000 C 57.350 32.000,57.500 31.893,57.500 31.761 C 57.500 31.630,57.650 31.475,57.833 31.417 C 58.017 31.358,58.167 31.212,58.167 31.092 C 58.167 30.971,58.317 30.833,58.500 30.785 C 58.683 30.737,58.833 30.587,58.833 30.452 C 58.833 30.316,58.983 30.166,59.167 30.118 C 59.350 30.070,59.500 29.912,59.500 29.766 C 59.500 29.541,59.746 29.500,61.083 29.500 C 62.556 29.500,62.667 29.523,62.667 29.833 C 62.667 30.049,62.778 30.167,62.981 30.167 C 63.154 30.167,63.333 30.316,63.382 30.500 C 63.430 30.683,63.588 30.833,63.734 30.833 C 63.880 30.833,64.000 30.946,64.000 31.083 C 64.000 31.221,64.104 31.333,64.231 31.333 C 64.357 31.333,64.500 31.483,64.548 31.667 C 64.596 31.850,64.755 32.000,64.901 32.000 C 65.129 32.000,65.167 32.274,65.167 33.917 C 65.167 35.559,65.129 35.833,64.901 35.833 C 64.755 35.833,64.596 35.983,64.548 36.167 C 64.500 36.350,64.366 36.500,64.250 36.500 C 64.134 36.500,64.000 36.650,63.952 36.833 C 63.904 37.017,63.745 37.167,63.599 37.167 C 63.444 37.167,63.333 37.306,63.333 37.500 C 63.333 37.817,63.222 37.833,61.083 37.833 C 58.944 37.833,58.833 37.817,58.833 37.500 C 58.833 37.278,58.722 37.167,58.500 37.167 C 58.278 37.167,58.167 37.056,58.167 36.833 C 58.167 36.611,58.056 36.500,57.833 36.500 C 57.611 36.500,57.500 36.389,57.500 36.167 C 57.500 35.871,57.389 35.833,56.514 35.833 C 55.394 35.833,55.000 35.941,55.000 36.248 C 55.000 36.365,54.850 36.500,54.667 36.548 C 54.483 36.596,54.333 36.755,54.333 36.901 C 54.333 37.047,54.226 37.167,54.095 37.167 C 53.963 37.167,53.808 37.317,53.750 37.500 C 53.692 37.683,53.537 37.833,53.405 37.833 C 53.274 37.833,53.167 37.983,53.167 38.167 C 53.167 38.389,53.056 38.500,52.833 38.500 C 52.650 38.500,52.500 38.604,52.500 38.731 C 52.500 38.857,52.350 39.000,52.167 39.048 C 51.983 39.096,51.833 39.246,51.833 39.382 C 51.833 39.517,51.683 39.667,51.500 39.715 C 51.317 39.763,51.167 39.922,51.167 40.068 C 51.167 40.214,51.062 40.333,50.934 40.333 C 50.532 40.333,50.500 40.743,50.500 45.836 C 50.500 51.216,50.550 51.578,51.309 51.745 C 51.582 51.805,51.847 51.962,51.898 52.094 C 52.032 52.443,57.966 52.449,58.100 52.100 C 58.149 51.971,58.335 51.828,58.512 51.782 C 58.809 51.704,58.833 51.532,58.833 49.510 C 58.833 47.720,58.879 47.305,59.083 47.227 C 59.221 47.174,59.333 47.027,59.333 46.899 C 59.333 46.771,59.475 46.667,59.647 46.667 C 59.821 46.667,60.000 46.518,60.048 46.333 C 60.132 46.013,60.276 46.000,63.651 46.000 C 67.056 46.000,67.167 45.989,67.167 45.667 C 67.167 45.481,67.278 45.333,67.417 45.333 C 67.554 45.333,67.667 45.221,67.667 45.083 C 67.667 44.946,67.786 44.833,67.932 44.833 C 68.078 44.833,68.237 44.683,68.285 44.500 C 68.333 44.316,68.512 44.167,68.686 44.167 C 68.889 44.167,69.000 44.049,69.000 43.833 C 69.000 43.611,69.111 43.500,69.333 43.500 C 69.556 43.500,69.667 43.389,69.667 43.167 C 69.667 42.973,69.778 42.833,69.932 42.833 C 70.078 42.833,70.237 42.683,70.285 42.500 C 70.333 42.317,70.476 42.167,70.603 42.167 C 70.730 42.167,70.833 42.054,70.833 41.917 C 70.833 41.778,70.981 41.667,71.167 41.667 C 71.389 41.667,71.500 41.556,71.500 41.333 C 71.500 41.111,71.611 41.000,71.833 41.000 C 72.056 41.000,72.167 40.889,72.167 40.667 C 72.167 40.444,72.278 40.333,72.500 40.333 C 72.722 40.333,72.833 40.222,72.833 40.000 C 72.833 39.778,72.944 39.667,73.167 39.667 C 73.663 39.667,73.693 28.158,73.197 27.801 C 73.031 27.681,72.846 27.452,72.786 27.292 C 72.726 27.131,72.571 27.000,72.441 27.000 C 72.312 27.000,72.166 26.850,72.118 26.667 C 72.070 26.483,71.912 26.333,71.766 26.333 C 71.620 26.333,71.500 26.226,71.500 26.095 C 71.500 25.963,71.350 25.808,71.167 25.750 C 70.983 25.692,70.833 25.537,70.833 25.405 C 70.833 25.274,70.683 25.167,70.500 25.167 C 70.278 25.167,70.167 25.056,70.167 24.833 C 70.167 24.650,70.059 24.500,69.928 24.500 C 69.797 24.500,69.640 24.345,69.580 24.155 C 69.514 23.947,69.376 23.845,69.235 23.899 C 69.100 23.951,69.000 23.887,69.000 23.749 C 69.000 23.616,68.813 23.385,68.585 23.236 C 68.356 23.086,68.211 22.897,68.261 22.815 C 68.312 22.733,68.229 22.667,68.078 22.667 C 67.926 22.667,67.763 22.517,67.715 22.333 C 67.667 22.150,67.495 22.000,67.333 22.000 C 67.171 22.000,67.000 21.850,66.952 21.667 C 66.867 21.342,66.724 21.333,61.181 21.333 C 55.703 21.333,55.486 21.345,55.211 21.667 C 55.054 21.850,54.830 22.000,54.713 22.000 C 54.596 22.000,54.500 22.120,54.500 22.266 C 54.500 22.412,54.350 22.570,54.167 22.618 C 53.983 22.666,53.833 22.804,53.833 22.925 C 53.833 23.046,53.683 23.192,53.500 23.250 C 53.317 23.308,53.167 23.422,53.167 23.504 C 53.167 23.696,52.363 24.500,52.170 24.500 C 52.089 24.500,51.975 24.650,51.917 24.833 C 51.858 25.017,51.712 25.167,51.592 25.167 C 51.471 25.167,51.333 25.317,51.285 25.500 C 51.237 25.683,51.087 25.833,50.952 25.833 C 50.816 25.833,50.666 25.983,50.618 26.167 C 50.570 26.350,50.412 26.500,50.266 26.500 C 50.120 26.500,50.000 26.607,50.000 26.739 C 50.000 26.870,49.850 27.025,49.667 27.083 C 49.483 27.142,49.333 27.297,49.333 27.428 C 49.333 27.559,49.226 27.667,49.095 27.667 C 48.963 27.667,48.808 27.817,48.750 28.000 C 48.692 28.183,48.542 28.333,48.417 28.333 C 48.292 28.333,48.142 28.483,48.083 28.667 C 48.025 28.850,47.879 29.000,47.758 29.000 C 47.638 29.000,47.500 29.150,47.452 29.333 C 47.404 29.517,47.245 29.667,47.099 29.667 C 46.953 29.667,46.833 29.774,46.833 29.905 C 46.833 30.037,46.683 30.192,46.500 30.250 C 46.317 30.308,46.167 30.422,46.167 30.504 C 46.167 30.696,45.363 31.500,45.170 31.500 C 45.089 31.500,44.975 31.650,44.917 31.833 C 44.858 32.017,44.712 32.167,44.592 32.167 C 44.471 32.167,44.333 32.317,44.285 32.500 C 44.237 32.683,44.078 32.833,43.932 32.833 C 43.786 32.833,43.667 32.941,43.667 33.072 C 43.667 33.203,43.517 33.358,43.333 33.417 C 43.150 33.475,43.000 33.625,43.000 33.750 C 43.000 33.875,42.850 34.025,42.667 34.083 C 42.483 34.142,42.333 34.297,42.333 34.428 C 42.333 34.559,42.226 34.667,42.095 34.667 C 41.963 34.667,41.808 34.817,41.750 35.000 C 41.692 35.183,41.542 35.333,41.417 35.333 C 41.292 35.333,41.142 35.483,41.083 35.667 C 41.025 35.850,40.870 36.000,40.739 36.000 C 40.607 36.000,40.500 36.107,40.500 36.239 C 40.500 36.370,40.350 36.525,40.167 36.583 C 39.983 36.642,39.833 36.792,39.833 36.917 C 39.833 37.042,39.683 37.192,39.500 37.250 C 39.317 37.308,39.167 37.463,39.167 37.595 C 39.167 37.788,38.803 37.833,37.250 37.833 C 35.607 37.833,35.333 37.795,35.333 37.568 C 35.333 37.422,35.183 37.263,35.000 37.215 C 34.816 37.167,34.667 36.988,34.667 36.814 C 34.667 36.611,34.549 36.500,34.333 36.500 C 34.111 36.500,34.000 36.389,34.000 36.167 C 34.000 35.944,33.889 35.833,33.667 35.833 C 33.353 35.833,33.333 35.722,33.333 33.936 C 33.333 32.179,33.358 32.032,33.667 31.952 C 33.850 31.904,34.000 31.745,34.000 31.599 C 34.000 31.453,34.107 31.333,34.239 31.333 C 34.370 31.333,34.525 31.183,34.583 31.000 C 34.642 30.817,34.788 30.667,34.908 30.667 C 35.029 30.667,35.169 30.509,35.219 30.317 C 35.273 30.110,35.388 30.014,35.500 30.083 C 35.612 30.152,35.727 30.057,35.781 29.850 C 35.919 29.322,39.167 29.306,39.167 29.833 C 39.167 30.056,39.278 30.167,39.500 30.167 C 39.722 30.167,39.833 30.278,39.833 30.500 C 39.833 30.683,39.937 30.833,40.064 30.833 C 40.191 30.833,40.334 30.983,40.382 31.167 C 40.461 31.469,40.609 31.500,41.984 31.500 C 43.389 31.500,43.500 31.476,43.500 31.167 C 43.500 30.944,43.611 30.833,43.833 30.833 C 44.056 30.833,44.167 30.722,44.167 30.500 C 44.167 30.278,44.278 30.167,44.500 30.167 C 44.722 30.167,44.833 30.056,44.833 29.833 C 44.833 29.611,44.944 29.500,45.167 29.500 C 45.389 29.500,45.500 29.389,45.500 29.167 C 45.500 28.944,45.611 28.833,45.833 28.833 C 46.019 28.833,46.167 28.722,46.167 28.583 C 46.167 28.446,46.279 28.333,46.417 28.333 C 46.621 28.333,46.667 28.046,46.667 26.750 C 46.667 25.454,46.621 25.167,46.417 25.167 C 46.278 25.167,46.167 25.019,46.167 24.833 C 46.167 24.611,46.056 24.500,45.833 24.500 C 45.611 24.500,45.500 24.389,45.500 24.167 C 45.500 23.944,45.389 23.833,45.167 23.833 C 44.944 23.833,44.833 23.722,44.833 23.500 C 44.833 23.278,44.722 23.167,44.500 23.167 C 44.278 23.167,44.167 23.056,44.167 22.833 C 44.167 22.611,44.056 22.500,43.833 22.500 C 43.650 22.500,43.499 22.406,43.497 22.292 C 43.496 22.177,43.316 21.915,43.099 21.708 C 42.510 21.150,31.500 21.110,31.500 21.667 " stroke="none" fill="#ec1453" fill-rule="evenodd"></path><path id="path2" d="" stroke="none" fill="#443cf0" fill-rule="evenodd"></path><path id="path3" d="" stroke="none" fill="#443cf0" fill-rule="evenodd"></path><path id="path4" d="" stroke="none" fill="#443cf0" fill-rule="evenodd"></path></g></svg>