<svg width="91" height="96" viewBox="0 0 91 96" fill="none" xmlns="http://www.w3.org/2000/svg">
<path fill-rule="evenodd" clip-rule="evenodd" d="M65.128 96L65.128 -1.11602e-06L90.928 0L90.928 96L65.128 96Z" fill="url(#paint0_linear_63_868)"/>
<path fill-rule="evenodd" clip-rule="evenodd" d="M25.828 2.78508e-07L25.828 96L0.0279541 96L0.0279552 0L25.828 2.78508e-07Z" fill="url(#paint1_linear_63_868)"/>
<path fill-rule="evenodd" clip-rule="evenodd" d="M90.928 0C90.928 19.3462 87.5888 36.2571 74.961 48.4007C66.0234 56.9955 55.6968 59.1579 48.7904 60.6042C48.5617 60.6521 48.3367 60.6992 48.1156 60.7457C40.8443 62.2764 37.2471 63.267 34.0538 66.2374C30.608 69.9296 28.8375 72.9828 27.7186 76.6687C26.4532 80.8378 25.8 86.5427 25.8 96H0C0 85.789 0.645038 77.0354 3.03086 69.1752C5.53904 60.9119 9.71992 54.4173 15.5367 48.2674L15.7466 48.0454L15.9668 47.8337C24.8941 39.2484 35.2151 37.0875 42.1155 35.6428C42.3479 35.5942 42.5764 35.5463 42.8009 35.499C50.2203 33.9372 53.8229 32.9342 57.0777 29.8042C61.9807 25.0892 65.128 17.1806 65.128 0H90.928Z" fill="white"/>
<g style="mix-blend-mode:multiply">
<path fill-rule="evenodd" clip-rule="evenodd" d="M48.7904 60.6042C53.2439 59.6716 59.1196 58.4412 65.128 55.3802V96H90.928L90.928 0H65.128C65.128 17.1806 61.9807 25.0892 57.0777 29.8042C53.8229 32.9342 50.2203 33.9372 42.8009 35.499C42.5764 35.5463 42.3479 35.5942 42.1155 35.6428C37.6751 36.5725 31.8183 37.7987 25.8278 40.8426V0H0.0278332L0.0278321 92.4995C0.00870476 93.6473 0 94.8138 0 96H0.027832H25.8H25.8278V92.771C25.9646 85.2031 26.6042 80.3403 27.7186 76.6687C28.8375 72.9828 30.608 69.9296 34.0538 66.2374C37.2471 63.267 40.8443 62.2764 48.1156 60.7457C48.3367 60.6992 48.5617 60.6521 48.7904 60.6042Z" fill="url(#paint2_linear_63_868)"/>
</g>
<defs>
<linearGradient id="paint0_linear_63_868" x1="65.0096" y1="-1.12114e-06" x2="65.0096" y2="96" gradientUnits="userSpaceOnUse">
<stop offset="0.22" stop-color="#616161"/>
<stop offset="0.78" stop-color="white"/>
</linearGradient>
<linearGradient id="paint1_linear_63_868" x1="25.9463" y1="96" x2="25.9463" y2="2.79786e-07" gradientUnits="userSpaceOnUse">
<stop offset="0.22" stop-color="#616161"/>
<stop offset="0.78" stop-color="white"/>
</linearGradient>
<linearGradient id="paint2_linear_63_868" x1="0" y1="0" x2="88" y2="96.5" gradientUnits="userSpaceOnUse">
<stop stop-color="#5D2B3B"/>
<stop offset="0.33" stop-color="#2F1C46"/>
<stop offset="0.66" stop-color="#1B1F38"/>
<stop offset="1" stop-color="#0B102C"/>
</linearGradient>
</defs>
</svg>
