<svg width="37" height="34" viewBox="0 0 37 34" fill="none" xmlns="http://www.w3.org/2000/svg">
<g id="browser 1" clip-path="url(#clip0_1261_242)">
<path id="Vector" d="M11.7772 4.25V8.5H34.6649V6.375C34.6649 5.19961 33.6421 4.25 32.3761 4.25H11.7772ZM9.48843 4.25H4.9109C3.64493 4.25 2.62214 5.19961 2.62214 6.375V8.5H9.48843V4.25ZM2.62214 10.625V27.625C2.62214 28.8004 3.64493 29.75 4.9109 29.75H32.3761C33.6421 29.75 34.6649 28.8004 34.6649 27.625V10.625H10.6328H2.62214ZM0.333374 6.375C0.333374 4.03086 2.38611 2.125 4.9109 2.125H32.3761C34.9009 2.125 36.9536 4.03086 36.9536 6.375V27.625C36.9536 29.9691 34.9009 31.875 32.3761 31.875H4.9109C2.38611 31.875 0.333374 29.9691 0.333374 27.625V6.375Z" fill="#EC1550"/>
</g>
<defs>
<clipPath id="clip0_1261_242">
<rect width="36.6202" height="34" fill="white" transform="translate(0.333374)"/>
</clipPath>
</defs>
</svg>
