<svg width="34" height="34" viewBox="0 0 34 34" fill="none" xmlns="http://www.w3.org/2000/svg">
<g id="hexagon-vertical-nft-slanted 1" clip-path="url(#clip0_1261_230)">
<path id="Vector" d="M18.924 32.9773C17.4592 33.7344 15.6541 33.7344 14.1893 32.9773L2.36735 26.848C0.902551 26.091 0 24.6832 0 23.1691V10.9105C0 9.38982 0.902551 7.98865 2.36735 7.23162L14.1893 1.10232C15.6541 0.345288 17.4592 0.345288 18.924 1.10232L30.7459 7.23162C32.2107 7.98865 33.1133 9.39646 33.1133 10.9105V23.1691C33.1133 24.6898 32.2107 26.091 30.7459 26.848L18.924 32.9773ZM15.373 31.1379C16.1054 31.5164 17.0079 31.5164 17.7403 31.1379L29.5622 25.0086C30.2946 24.6301 30.7459 23.9261 30.7459 23.1691V10.9105C30.7459 10.1535 30.2946 9.44958 29.5622 9.07107L17.7403 2.94177C17.0079 2.56326 16.1054 2.56326 15.373 2.94177L3.55102 9.07107C2.81862 9.44958 2.36735 10.1535 2.36735 10.9105V23.1691C2.36735 23.9261 2.81862 24.6301 3.55102 25.0086L15.373 31.1379ZM20.1224 8.20115C20.1224 9.01794 19.1385 9.52927 18.3543 9.12419L16.564 8.20779V15.9773H18.9314C19.5824 15.9773 20.1151 16.4554 20.1151 17.0398C20.1151 17.6242 19.5824 18.1023 18.9314 18.1023H16.564V26.6023C16.564 27.1867 16.0314 27.6648 15.3804 27.6648C14.7293 27.6648 14.1967 27.1867 14.1967 26.6023V17.0398V6.3949C14.1967 6.28865 14.2115 6.1824 14.2411 6.08279C14.2781 5.95662 14.3446 5.83708 14.4334 5.73748C14.5148 5.63787 14.6184 5.55154 14.7293 5.49177C14.9143 5.37888 15.1436 5.31912 15.3804 5.31912H15.3878C15.4247 5.31912 15.4617 5.31912 15.4913 5.32576C15.6763 5.33904 15.8464 5.39216 15.9944 5.47185L19.5306 7.28474C19.9005 7.47068 20.1298 7.82927 20.1298 8.20779L20.1224 8.20115ZM21.3061 10.0207C21.3061 9.20388 22.2901 8.69255 23.0742 9.09763L28.4008 11.8269C28.9704 12.1191 29.1628 12.7699 28.8446 13.2746C28.5265 13.7793 27.7941 13.9586 27.2319 13.673L26.0334 13.0554V23.4148C26.0334 23.9992 25.5008 24.4773 24.8497 24.4773C24.1987 24.4773 23.6661 23.9992 23.6661 23.4148V11.8469L21.9054 10.9437C21.5355 10.7578 21.3061 10.3992 21.3061 10.0207ZM10.6383 8.53982C11.2893 8.53982 11.8219 9.01794 11.8219 9.60232V24.4773C11.8219 24.9953 11.4003 25.4402 10.8306 25.5265C10.261 25.6129 9.69872 25.3074 9.52117 24.816L7.08725 18.275V22.3523C7.08725 22.9367 6.55459 23.4148 5.90357 23.4148C5.25255 23.4148 4.7199 22.9367 4.7199 22.3523V11.7273C4.7199 11.2094 5.14158 10.7644 5.71122 10.6781C6.28087 10.5918 6.84311 10.8972 7.02066 11.3886L9.45459 17.9297V9.60232C9.45459 9.01794 9.98725 8.53982 10.6383 8.53982Z" fill="#EC1550"/>
</g>
<defs>
<clipPath id="clip0_1261_230">
<rect width="33.1429" height="34" fill="white"/>
</clipPath>
</defs>
</svg>
