<svg width="30" height="34" viewBox="0 0 30 34" fill="none" xmlns="http://www.w3.org/2000/svg">
<g id="file-contract 1" clip-path="url(#clip0_1261_236)">
<path id="Vector" d="M24.6031 31.875H5.45393C4.12994 31.875 3.06028 30.9254 3.06028 29.75V4.25C3.06028 3.07461 4.12994 2.125 5.45393 2.125H15.0285V9.5625C15.0285 11.3223 16.6368 12.75 18.619 12.75H26.9968V29.75C26.9968 30.9254 25.9271 31.875 24.6031 31.875ZM18.619 10.625C17.9608 10.625 17.4222 10.1469 17.4222 9.5625V2.1582C17.6316 2.20469 17.8261 2.29766 17.9757 2.43711L26.6452 10.1336C26.8023 10.273 26.907 10.4391 26.9594 10.625H18.619ZM5.45393 0C2.81343 0 0.666626 1.90586 0.666626 4.25V29.75C0.666626 32.0941 2.81343 34 5.45393 34H24.6031C27.2436 34 29.3904 32.0941 29.3904 29.75V10.884C29.3904 10.0406 29.0089 9.23047 28.3357 8.63281L19.6737 0.936328C19.0005 0.338672 18.0879 0 17.1379 0H5.45393ZM6.65075 4.25C5.9925 4.25 5.45393 4.72813 5.45393 5.3125C5.45393 5.89687 5.9925 6.375 6.65075 6.375H11.4381C12.0963 6.375 12.6349 5.89687 12.6349 5.3125C12.6349 4.72813 12.0963 4.25 11.4381 4.25H6.65075ZM6.65075 8.5C5.9925 8.5 5.45393 8.97812 5.45393 9.5625C5.45393 10.1469 5.9925 10.625 6.65075 10.625H11.4381C12.0963 10.625 12.6349 10.1469 12.6349 9.5625C12.6349 8.97812 12.0963 8.5 11.4381 8.5H6.65075ZM10.705 25.3539L11.4381 23.1758L12.6872 26.868C12.8144 27.2531 13.1809 27.5387 13.6223 27.6117C14.0636 27.6848 14.5199 27.5254 14.7892 27.2L16.1057 25.6461C16.1805 25.5531 16.3076 25.5 16.4348 25.5C16.5919 25.5 16.734 25.5797 16.8013 25.6992L17.5568 27.034C17.7588 27.3926 18.1777 27.6184 18.6265 27.6184H23.4138C24.072 27.6184 24.6106 27.1402 24.6106 26.5559C24.6106 25.9715 24.072 25.4934 23.4138 25.4934H19.3595L18.9407 24.743C18.4619 23.9062 17.4895 23.375 16.4273 23.375C15.6045 23.375 14.8266 23.6938 14.2955 24.2449L13.353 21.4492C13.0986 20.6988 12.3207 20.1875 11.4381 20.1875C10.5554 20.1875 9.77746 20.6988 9.52313 21.4559L8.40859 24.743C8.25899 25.1945 7.78774 25.5 7.26413 25.5H6.65075C5.9925 25.5 5.45393 25.9781 5.45393 26.5625C5.45393 27.1469 5.9925 27.625 6.65075 27.625H7.26413C8.84992 27.625 10.2487 26.702 10.705 25.3539Z" fill="#EC1550"/>
</g>
<defs>
<clipPath id="clip0_1261_236">
<rect width="28.7238" height="34" fill="white" transform="translate(0.666626)"/>
</clipPath>
</defs>
</svg>
